<?xml version="1.0" encoding="utf-8"?>
<!-- Generator: Adobe Illustrator 22.0.0, SVG Export Plug-In . SVG Version: 6.00 Build 0)  -->
<svg version="1.1" id="Layer_1" xmlns="http://www.w3.org/2000/svg" xmlns:xlink="http://www.w3.org/1999/xlink" x="0px" y="0px"
	 viewBox="0 0 2764.1 4217.6" style="enable-background:new 0 0 2764.1 4217.6;" xml:space="preserve">
<style type="text/css">
	.st0{fill:#283349;}
	.st1{opacity:0.12;fill:url(#SVGID_1_);enable-background:new    ;}
	.st2{fill:#F5D3AF;}
	.st3{fill:#4F5D4E;}
	.st4{fill:#3A4239;}
	.st5{fill:#F9C1CF;}
	.st6{fill:#EFAA04;}
	.st7{opacity:0.5;fill:#FCE06B;enable-background:new    ;}
	.st8{fill:#FFFFFF;}
	.st9{fill:url(#SVGID_2_);}
	.st10{fill:url(#SVGID_3_);}
	.st11{fill:#9EAA58;}
	.st12{fill:#F1F3F4;}
	.st13{fill:#FAC800;}
	.st14{opacity:0.6;fill:#3265A0;enable-background:new    ;}
	.st15{opacity:0.5;fill:#FFFFFF;enable-background:new    ;}
	.st16{opacity:0.5;}
	.st17{fill:#445877;}
	.st18{fill:#F1BAD1;}
	.st19{fill:url(#SVGID_4_);}
	.st20{fill:#F05673;}
	.st21{fill:#FFEB97;}
	.st22{fill:#9084BE;}
	.st23{fill:#DFF2F8;}
	.st24{opacity:0.3;fill:#DFF2F8;enable-background:new    ;}
	.st25{fill:#172F57;}
	.st26{opacity:0.7;}
	.st27{fill:#F9C0CF;}
	.st28{fill:#FCDDE3;}
	.st29{fill:#CB3D3B;}
	.st30{fill:#D54855;}
	.st31{fill:#E15B68;}
	.st32{fill:#D83E22;}
	.st33{fill:#F7B521;}
	.st34{fill:#8973A7;}
	.st35{fill:#C7B8D2;}
	.st36{fill:#F8DF45;}
	.st37{fill:#A78CC7;}
	.st38{fill:url(#SVGID_5_);}
	.st39{fill:url(#SVGID_6_);}
	.st40{fill:url(#SVGID_7_);}
	.st41{fill:url(#SVGID_8_);}
	.st42{fill:url(#SVGID_9_);}
	.st43{opacity:0.5;fill:#FFF227;enable-background:new    ;}
	.st44{fill:#68829B;}
	.st45{fill:url(#SVGID_10_);}
	.st46{enable-background:new    ;}
</style>
<rect class="st0" width="2764.1" height="4217.6"/>
<linearGradient id="SVGID_1_" gradientUnits="userSpaceOnUse" x1="1380.7312" y1="3612.8962" x2="1380.7312" y2="1778.6771" gradientTransform="matrix(1 0 0 -1.0304 0.1843 4322.6235)">
	<stop  offset="3.144548e-07" style="stop-color:#FFFFFF"/>
	<stop  offset="1" style="stop-color:#FFFFFF"/>
</linearGradient>
<path class="st1" d="M2509,1307c51.1-96.4,112.4-189,127.6-302.1C2662,816.2,2605.9,636,2451.8,506
	c-69.1-58.3-157.8-92.3-250.7-95.8c-93-3.6-205.6,20.8-284.7,131.7c-159,222.8-246.4,356.5-548,274.5h-0.1
	c-173-47-350.7,54.2-404.3,230.1c-22.1,72.5-76.1,170.3-207.3,193C567.6,1272,313,1258.7,186,1420.8
	c-111.7,142.5-65.6,339.6,11.5,484.8c91.1,171.6,272.3,266.2,449.9,342.8c205.9,88.9,420.1,170.3,643.2,211.9
	c127.8,23.9,263.5,34.7,393.8,28.2c187.3-9.3,407.8-43.9,579.6-118c0.5-0.2,309.7-133.8,222.8-505.2
	c-28.2-120.7-69-263.9-43.9-388.5C2455,1416.2,2480.4,1361,2509,1307z"/>
<g>
	<path class="st2" d="M1715.6,1452.3l101.1,85.4l50.6,31.3l15.7-0.1l-5.8-14c0,0-11.8-5.4-21.8-13L1744.1,1436L1715.6,1452.3z"/>
	<path class="st3" d="M1816.7,1537.7c0,0-14.6,18.6-13.6,41.7l122.1,0.1c2.1,0,4-1.3,4.7-3.3s0.1-4.2-1.5-5.5
		c-3.9-3.2-10.4-5.5-20.9-3.5c-2.6,0.5-5.3,0.1-7.7-1l-22.6-11.3l-4.4,7.1L1816.7,1537.7z"/>
</g>
<path class="st3" d="M1830,1506.2l-27.3,31.1c-23.3-17.4-45.8-31-68.8-46.6c-33-22.4-62.6-44-79.3-67.3l-132.7,92.9l-78.8,55.1
	l-91.6-69.2l270.6-150.4c22.9-12.7,51.4-8.7,69.9,9.8L1830,1506.2z"/>
<path class="st4" d="M1733.9,1490.7c-33-22.4-62.6-44-79.3-67.3l-132.7,92.9l-51.9-25.7l68.7-13.7l114.4-65.6l3.1-22.9l10.7,27.5
	C1666.8,1415.7,1703.5,1464.2,1733.9,1490.7z"/>
<path class="st5" d="M976.6,2758.3c-0.1-2-0.9-4-2.1-5.6l-22.3-29.8l-0.2,0.1l-51.1-116.8l-27.8-10l-4.7,30.8
	c0,0,54.8,76.3,71.6,99.7l-0.2,0.1c0,0,0.3,36.3,7.5,48.3c0.5,0.9,1.6,1.3,2.6,1.1c1-0.3,1.7-1.2,1.7-2.3
	c-1.1-5.7-1.3-12.8-0.4-18.6c0.1-0.5,0.4-0.9,0.8-1.1c0.5-0.2,1-0.1,1.3,0.2l12.9,10.4c0.6,0.5,1,1.2,1.1,1.9l1.8,16.4
	c0,0-8.2-0.9-11.3,1.4c-0.3,0.3-0.5,0.7-0.4,1.1c0.1,0.4,0.4,0.7,0.9,0.8l10.9,1.9c0,0-9.2,8.8-7.7,11.6c0.1,0.3,0.5,0.4,0.8,0.2
	c1.4-0.7,6.6-3.7,12.1-10.1l2.2,0.4c0.6,0.1,1.2-0.1,1.7-0.5s0.7-1,0.7-1.6L976.6,2758.3z"/>
<g>
	<path class="st3" d="M570.4,2878.2c-1,0.5-2.1,0.7-3.2,0.6c-1.7-0.2-4.3-0.4-6-0.6c-46.2-6.1-82-35.3-104.7-74.7
		c-13.3-23.1-15-47.6-11-73.4c3.8-24.1,13.9-47.7,10.7-72.4c-2.4-18.1-11.5-34.8-14.4-52.8l-0.1-0.8c0,0,99.2,23.8,147.9,112
		c16,29,22.4,62.3,18.1,95.2C604.3,2836.8,594.8,2865.2,570.4,2878.2z"/>
	<path class="st3" d="M594.1,3398.3h-12.6c0.5-7.8,0.3-20.5-2.4-39c-2.3-15.8-12.2-29.4-26.5-36.5c-12.8-6.4-27.4-13.2-38.6-17.2
		c-25-8.8-22-46.3-47-64.6c-25.3-18.6-27-31.3-23.8-38.8c2.3-5.4,8.3-8.2,13.9-6.5c71.4,21.2,102.3,73.3,115.4,108.2
		C583.1,3327.3,595.4,3362.7,594.1,3398.3z"/>
	<path class="st3" d="M719.7,3058.7c0,0,86.7-70.5,171.9-50c32.7,7.9,72.1,37.3,72.3,73.8c0.2,36.3-35,29.6-58.7,19.4
		c-29.8-12.8-54-35.4-85.6-44.1c-15.1-4.1-30.9-5.7-46.5-5.5C761.1,3052.6,729.3,3050.9,719.7,3058.7z"/>
	<path class="st3" d="M972.4,2880.9c0,83.6-65.9,96.6-110.6,99.4c-22.1,1.3-43.2,8.9-61.1,21.9c-2.8,2-5.5,4-8.3,6
		c-19,13.8-38.4,27.5-57.2,41.9c-2.4,1.8-4.6,3.6-6.8,5.5c-2.1,1.9-4.5,3.6-6.4,5.8l-5.9,6.3c-1.9,2.1-3.6,4.5-5.4,6.8l-2.6,3.4
		c-0.9,1.1-1.6,2.4-2.4,3.6l-4.7,7.3l-4.2,7.6c-1.4,2.5-2.8,5.1-4,7.7c-10,20.8-17,42.6-22.3,64.1c-8.6,35.9-12.9,70.7-15.3,101.8
		c-0.5,6.2-0.9,12.3-1.3,18.2c-2.1,35.5-1.9,65.2-1.5,85.9c0.2,10.4,0.6,18.6,0.9,24.1h-8.9c-0.2-5.6-0.6-13.7-0.7-24
		c-0.3-20.9-0.3-50.8,2-86.6c2.1-30.5,5.6-65.5,13.2-102.3c1.3-6.3,2.7-12.6,4.3-19c5.5-21.8,12.7-44.1,23.2-65.4
		c1.2-2.7,2.6-5.4,4.1-7.9l4.4-7.8l4.9-7.6c0.9-1.3,1.7-2.5,2.5-3.8l2.8-3.6c1.9-2.3,3.7-4.8,5.7-7.1l6.3-6.6
		c2.1-2.3,4.6-4.1,6.8-6.1c2.3-2,4.7-4,7.1-5.7c19.1-14.4,38.6-28.1,57.6-41.7c19.1-13.6,37.7-27.1,55.1-41
		c17.4-13.8,33.6-27.9,47.8-42.5c14.2-14.5,26.6-29.3,36.4-44c22.6-33.8,32.1-70.8,43.7-109.3L972.4,2880.9z"/>
	<path class="st3" d="M689.9,3241.6c0,0-32-86,33.1-128.9c0,0,25.3-20.9,71.6-32C794.6,3080.8,836.5,3211.9,689.9,3241.6z"/>
	<path class="st3" d="M698.1,3221.2c0,0-0.8,2.9-2.1,7.9c-0.6,2.5-1.4,5.5-2.2,9.1c-0.8,3.5-1.7,7.5-2.6,11.9
		c-1,4.3-1.8,9.1-2.8,14.1c-0.9,5-2.1,10.3-3,15.8s-1.9,11.2-2.9,16.9c-1,5.8-1.7,11.7-2.6,17.6c-0.8,5.9-1.6,11.7-2.4,17.5
		c-0.8,5.8-1.2,11.5-1.8,17c-0.1,0.6-0.1,1.2-0.2,1.8c-0.5,4.9-1,9.6-1.4,14.2c-0.2,2-0.4,4-0.6,5.9c-0.2,2.9-0.4,5.7-0.5,8.3
		c-0.5,7.6-0.9,14.1-1.1,19h-13c0.6-5.1,1.3-12,2.2-20.1c0.5-4.5,0.9-9.3,1.8-14.4c0.8-5.1,1.5-10.5,2.4-16.1
		c0.9-5.5,1.6-11.3,2.6-17.1c1.1-5.8,2.2-11.7,3.3-17.6c1.1-5.9,2.1-11.8,3.4-17.5c1.3-5.8,2.5-11.4,3.7-16.9
		c1.1-5.5,2.6-10.7,3.8-15.7c1.3-5,2.4-9.7,3.6-14.1c1.2-4.3,2.3-8.3,3.2-11.8s1.9-6.6,2.6-9.1c1.5-5.1,2.4-7.9,2.4-7.9
		L698.1,3221.2z"/>
	<path class="st3" d="M667.3,3373.8c0,0,12.6-58.1,59.7-71.5c2.1-0.6,4.3,0,5.8,1.5s2.2,3.7,1.6,5.8
		C730.7,3323.9,717.1,3352.2,667.3,3373.8z"/>
	<path class="st3" d="M893.1,2722.2c0,0-264,27.1-211.1,230.7c3.1,11.8,2.6,24.3-1.3,35.9c-13.6,40-20,85.4-21.1,93.6
		c5.9-49.3-23.6-173.6-30.2-200.6c-0.4-1.4-1.2-2.6-2.5-3.3c-1.2-0.8-2.7-0.9-4.1-0.6h-0.2c-1.5,0.4-2.7,1.4-3.5,2.7
		s-0.9,2.9-0.4,4.4c11.5,37.3,36.8,183.5,21.5,272.2c-10.1,58.8-10.2,159.6-8.9,226.8c0.1,4.9,0.2,9.7,0.3,14.3h23.3v-6.1
		c-0.9-45.2-0.9-85.7,0-122.1c0.8-31.2,2.1-59.3,3.8-84.6c7.1-104.4,21.3-161,31.5-189.5c3.2-9,11.8-14.9,21.4-14.6
		C765.5,2982.9,901.4,2963.1,893.1,2722.2z M659.5,3083.7c0-0.2,0-0.4,0.1-0.6C659.5,3083.5,659.5,3083.7,659.5,3083.7z"/>
	<path class="st3" d="M594.8,2952.9c0,0,55,47.4,52.3,131.7c0.4-10.9-12.6-29.1-18.6-37.3c-40.2-55-95.1-44-153.4-31.2L594.8,2952.9
		z"/>
	<path class="st3" d="M551.5,3204.7c-0.2-1.6,0.3-3.3,1.5-4.4s2.8-1.7,4.4-1.6c18.5,2.2,70.6,15.1,87.4,90.7
		C644.8,3289.4,565.6,3310.6,551.5,3204.7z"/>
	<path class="st3" d="M584,3109.8c0,0,57.3,23.5,57.3,79.3C641.3,3189.2,597.2,3202.4,584,3109.8z"/>
	<path class="st3" d="M389.1,3047c0,0,150.6-31.7,171.9,98.4c0,0-53.8,25.6-105.8,0C403.7,3120,389.1,3047,389.1,3047z"/>
	<path class="st3" d="M529.6,3118.6c0,0,0.5,0.2,1.4,0.7c1,0.5,2.2,1.2,3.9,2.2c3.3,2,7.9,4.9,13.1,8.9c2.5,2,5.4,4.2,8.2,6.7
		c2.8,2.4,5.8,5.1,8.7,8c3,2.8,5.8,6,8.7,9.1c2.9,3.2,5.6,6.6,8.4,9.9c2.6,3.5,5.3,6.9,7.8,10.4c2.4,3.6,4.8,7,7,10.5
		c2.1,3.5,4.1,6.9,6.1,10.1c1.9,3.2,3.4,6.4,5,9.3c1.5,2.9,3,5.5,4,8c1.1,2.4,2.1,4.5,2.9,6.3c1.6,3.5,2.5,5.5,2.5,5.5l-11,4.3
		c0,0-0.8-2-2.1-5.4c-0.7-1.7-1.5-3.8-2.4-6.2s-2.1-5-3.4-7.9c-1.3-2.8-2.6-6-4.3-9.2s-3.4-6.6-5.3-10c-2-3.4-4.1-6.9-6.2-10.4
		c-2.2-3.5-4.6-6.9-7-10.4c-2.5-3.4-5-6.8-7.6-10c-2.7-3.1-5.2-6.4-7.9-9.2c-2.6-2.9-5.3-5.7-7.9-8.2c-2.5-2.6-5.2-4.8-7.5-6.9
		c-4.8-4.1-9.1-7.2-12.1-9.2c-1.5-1-2.7-1.8-3.6-2.2c-0.8-0.5-1.3-0.7-1.3-0.7L529.6,3118.6z"/>
	<path class="st3" d="M281.8,2989.7c0,0,114.6-188.1,313-36.7C594.8,2952.9,456.7,3085.2,281.8,2989.7z"/>
	<path class="st3" d="M636.9,3398.3h-34.6c26.8-282.3-44.1-550.5-44.1-550.5l7.6-5.3c40.5,161.8,51.8,360,55,473.7
		c0.4,13.3,1.8,27,4.1,40.1c1.7,9.6,3.9,19.3,6.5,27.7C633.1,3389.4,634.9,3394.3,636.9,3398.3z"/>
</g>
<path class="st6" d="M705.1,2424.7c0,0-43.5,18.3-66.1,45c-7.6,9-28.2,19-37.8,26l-34.4,25.5l-5.4-7.6
	c-8.6,12.4-19.9,17.6-27.5,19.7l8.8,19c7,15.1,24.9,21.8,40.2,15l22.8-10.2l49.8-22.3l13.1-15.7l79.5-94.9
	C723.8,2415.5,705.1,2424.7,705.1,2424.7z"/>
<ellipse class="st7" cx="1422.4" cy="3400.4" rx="1191.1" ry="37.6"/>
<g>
	<path class="st5" d="M713.5,3135.2v209.1c-1,3-2.6,5.8-4.6,8.2c-9.5,11.6-29.1,21.2-29.1,21.2l-5.6,13.8h15.3l49.1-31.2
		c0,0,26.5-182.4,31.1-211.7L713.5,3135.2z"/>
	<path class="st8" d="M738.6,3356.4c0,0,13.1,19.1,12.2,41.9H635.1c-2.5,0-4.7-1.7-5.3-4.2s0.5-5.1,2.7-6.3
		c3.9-2.2,9.6-3.4,17.8-1.8c2.5,0.5,5.2,0.1,7.5-1.1l22-11.2l4.3,7L738.6,3356.4z"/>
</g>
<path class="st5" d="M774.8,3125.7l114.6,192.4c0.6,3.1,0.7,6.3,0.3,9.4c-2.2,14.8-14.2,33.1-14.2,33.1l2.3,14.8l13.1-7.9l26.2-52
	c0,0-89.1-214.9-100.2-242.4L774.8,3125.7z"/>
<path class="st8" d="M808,2933.3c-11.6,55.9,10.3,121.3,14,132.4c0.3,0.9,8,27.9,8,27.9c12.7,38.8-10.1,74.2-43.6,93
	c-27.4,15.4-62,19.6-89.9,5.3c-7.8-4-5.9-52.2-6.5-60.7c-1.8-27.5-3.6-55.1-5-82.6c-2.7-54.4-3.5-109.1,0.7-163.4
	c1.8-22.4,31-249.9,23-251.7L799,2664l40.9-6.4l27.7,51.8c19,44.9-10.4,107.1-10.4,107.1L808,2933.3z"/>
<path class="st6" d="M670.6,2458.3l-1.9,60.9l-13.1,15.7l-49.8,22.3c11.1-7.8,22.2-18.3,27.4-23.5
	C638.4,2479.1,670.6,2458.3,670.6,2458.3z"/>
<g>
	<path class="st8" d="M917.1,3315.6l-34.3,48.9l-7.3-3.8l-13.1,20.9c-1.3,2-3.1,3.6-5.3,4.5c-0.3,0-0.6-0.1-0.8-0.1
		c-8.3-1.6-13.9-0.4-17.8,1.8c-2.2,1.2-3.3,3.8-2.7,6.3s2.8,4.2,5.3,4.2h0.5h18.9l29.5-17.6l59-35.3
		C938.1,3325.3,917.1,3315.6,917.1,3315.6z"/>
</g>
<linearGradient id="SVGID_2_" gradientUnits="userSpaceOnUse" x1="5371.0425" y1="1756.7239" x2="5371.0425" y2="1916.2227" gradientTransform="matrix(1 0 0 -1 -4613.2373 4218)">
	<stop  offset="0" style="stop-color:#3B1C55"/>
	<stop  offset="1" style="stop-color:#172F57"/>
</linearGradient>
<path class="st9" d="M851.6,2467.3c-5.5,8.3-11.2,15.1-17,20.6c-41.3,39.2-88.4,11.4-117.2-14.2c-14.9-13.2-27.4-29.1-36.8-46.6
	c-11.2-20.7-20.5-40.5-19.9-72.9c0.4-18.7,1.9-32.2,3.3-41.3c2.3-14.5,9.9-27.6,21.2-36.9c0.8-0.7,1.6-1.3,2.4-1.9
	c13.7-10.2,25.7-10.5,25.7-10.5c23.3-3.4,46.1,2.3,59.8,22.1c15.3,22,7.1,44.4,13.7,68.6c5,18.1,20.9,33,34.4,44.8
	C869.8,2441.4,851.6,2467.3,851.6,2467.3z"/>
<path class="st6" d="M701.9,2428c0,0-26.5,2.9-31.9,24.5l-14.1,42.9c0,0-20.8,37.5-2.9,68.5l13.8,18.4c1.1,11.5,1.1,23.2,0.7,34.8
	c-0.4,10.8-1.3,21.7-3.1,32.3c-2.7,16.5-13.4,39.8,12.9,40.3c4.4,0.1,8.7-1.3,12.3-3.9c7.3-5.3,20-17,25.5-36.8L701.9,2428z"/>
<path class="st8" d="M701.9,2428c0,0-24.1,48.7-27.2,107.5c-1.3,24.4,2.5,48.4,11.2,71.3l11.5,30.4c2.4,6.4,3.6,13.1,3.6,19.9v14.8
	c0,0,2.6,30.9,121.2,0L790,2486.7l-24.2-71.7L701.9,2428z"/>
<path class="st6" d="M845.8,2669.3c-2.2,2.3-4.7,4.2-7.1,5.7c-4.2,2.6-9.1,4.2-14,4.5c-52.1,4-51.8-14.8-76.5-62.7
	c-25.5-49.5,17.5-201.7,17.5-201.7c16.8,2.9,27,7.9,40.3,12.9l14.8,78.9l1.4,7.4c-3,23-24.2,77.1,13.8,114
	C856.5,2648.2,853.2,2661.4,845.8,2669.3z"/>
<linearGradient id="SVGID_3_" gradientUnits="userSpaceOnUse" x1="5426.5654" y1="1548.4138" x2="5426.5654" y2="1762.5981" gradientTransform="matrix(1 0 0 -1 -4613.2373 4218)">
	<stop  offset="0" style="stop-color:#FFFFFF"/>
	<stop  offset="1" style="stop-color:#807B80"/>
</linearGradient>
<path class="st10" d="M845.9,2668.7c1.7-11.7,8.3-15.8-21.7-40s-26.7-70-26.7-70l-11.7-24.2c-24.2-47.5,0.8-76.7,0.8-76.7l34.1,49.1
	l1.4,7.4c-3,23-24.2,77.1,13.8,114c20.5,19.9,17.2,33.1,9.8,41C845.9,2669.1,845.9,2668.9,845.9,2668.7z"/>
<path class="st11" d="M685.9,3198.6c-18.3,3.4-36.3,8.2-54.7,10.6c16.6-9.1,34.4-18.1,52-26.2c-1-5.3-2.2-10.7-3.4-16.2
	c-25.2,9.9-50.3,19.8-76.6,26.1c23.6-17.2,46.3-35.2,69.8-52.1c-4.5-15.8-9.9-31.9-16.2-48c-7.2,1.4-14.4,2.4-21.8,2.7
	c6.3-3.9,12.3-7.7,18.3-11.6c-1.8-4.3-3.6-8.7-5.5-13c-14.1,6.6-28.5,12.8-43.7,16.9c13-11,24.1-24.3,33.9-38.4
	c-13.2-27.5-28.8-54.6-46.6-80v-2.1c-0.2,0.3-0.5,0.7-0.7,1.1c-0.2-0.3-0.5-0.7-0.7-1.1v2.1c-8.4,12-16.3,24.4-23.7,37.1
	c5.7,11.5,11.5,23,17.7,34.1c-7.8-7.8-15.5-16-23.6-23.7c-7.8,14-15,28.2-21.6,42.6c6.9,12.5,13.9,24.9,23,36.1
	c-10.3-7.1-19.2-15.5-29-22.5c-1.9,4.4-3.7,8.7-5.4,13.1c15.5,17.3,33.5,32.6,48,50.9c-17.2-12.5-35.7-23.2-54.5-33.9
	c-8.9,24.4-15.9,48.6-20.8,71.6c15.4,15.8,32.3,30,47.3,46.3c-17.5-7.5-34.2-16.4-51.5-23.7c-1,6.3-1.8,12.5-2.4,18.5
	c27.8,16.8,56.1,31.9,81.9,51.5c-27.9-8.1-55.7-16.1-83.6-24.2c-0.3,20.5,1.8,38.8,6.5,54.1c22.5,11.1,43.3,25.8,66.4,34.8
	c-19.6-3.2-38.4-9.6-57.4-14.4c1.5,2.3,3,4.6,4.7,6.6c25.7,31.6,55,37.7,69.6,38.6v35.6h20v-35.8c15-1.3,43.2-8,67.9-38.5
	c8.9-10.9,14.8-26.2,17.8-44.5c-21.3,7.4-42.6,14.4-64.8,16.5c23.1-13.6,44.7-29,67.2-42.7C690.2,3236.6,688.9,3218.2,685.9,3198.6z
	"/>
<g>
	<path class="st12" d="M563.6,3164.7c0,0,2.1,32.2-1.4,53.2s-7.4,25.9-4.6,53.6c2.8,27.7,14,91.8,14.7,94.2s5.6-104,5.6-104
		s-3.5-7.4-3.5-21S575.5,3187.1,563.6,3164.7z"/>
	<path class="st3" d="M563.3,3398.3h-24.4c-5.1-6.9-8.2-13.6-9.3-21.6c-1.4-10.5-4.2-16.1-4.2-16.1l-5.6-15.8l-0.3-1
		c-7-18.9-6-31.5-6-31.5c0.3-29.9-6.8-39.8-7.6-40.9c11.5,13.3,16.4,27.9,18.1,39.8c1.1,7.6,7.7,22.1,7.7,22.1l6.2,12.7
		L563.3,3398.3z"/>
	<path class="st3" d="M546.7,3398.3h-15.2c-3.4-5.2-4.6-9.9-4.3-19.5c0.3-12.6-4.2-11.6-7.4-15.4c-3.1-3.9-4.5-1.1-6-10.5
		c-1.4-9.5-13.3-18.6-13.3-18.6c7.4,1.4,13.8,5.2,19.3,10.5C535.9,3360,543.9,3387.2,546.7,3398.3z"/>
	<path class="st12" d="M537.3,3309.3c0,0-5.3-92.8-7.2-110.5c0,0,18.9,56.8,18.3,109.5L537.3,3309.3z"/>
	<path class="st11" d="M546.7,3334.4c0,0-4.7-23.1,0-61l-2.5-22.2c0,0,0.4-25.2,1.8-48.7c1.4-23.5,1.4-29.4,0.4-39.6
		c0,0,10.2,15.8,11.6,49.4c1.4,33.6,0.4,36.4,4.2,51.8c3.9,15.4,10.2,40.6,10.2,65.5l4.2,22.4c0,0,7.7,27.3,3.9,45.9L546.7,3334.4z"
		/>
	<path class="st12" d="M583.6,3398.3h-28.8c-6.9-12.4-16.4-32.4-16.8-49.3c0-1-0.1-2-0.1-3c-0.9-16.6-5.2-27.1-7.8-32.1
		c-2.4-4.6-4.1-9.6-4.9-14.7c-0.7-4.5-1.1-9.9-0.4-15.6c1.6-14.2,0-44.1-4.2-53.1c-3.1-6.6,7.3,6.9,13.8,30.9
		c0.1,0.2,0.1,0.4,0.2,0.7c2.5,9.5,4.1,19.6,4.4,29.4c0.1,2.6,0.7,8.2,4.2,13.2c0.4,0.6,1,1.5,1.6,2.6c0.2,0.4,0.5,0.9,0.8,1.4
		c3.8,7.3,9.4,20.5,12.9,28.8c1.9,4.6,4.2,9.1,6.7,13.4c1,1.7,2.2,3.8,3.4,6.1c1.1,2,2.2,4.2,3.4,6.5c0.2,0.5,0.5,0.9,0.7,1.4
		c2.5,5.1,5,10.7,7,16.5c0.7,2.1,1.4,4.1,1.9,6.2C582.5,3391.1,583.3,3394.8,583.6,3398.3z"/>
	<path class="st3" d="M679.9,3352.1c0,0-20.7-4.5-24.9,3.9s-7,2.1-11.2,20.7c-3.1,13.6-3,16.3-7.1,21.6h-18.4l19.6-46.2
		c0,0,2.3-3,5.9-5.5c1.1-0.8,2.4-1.6,3.8-2.2c3.2-1.4,6.8-1.6,10.1-0.4L679.9,3352.1z"/>
	<path class="st3" d="M653.2,3306.9c0.4,9.5,0.4,24.2-4.9,30.8c-1.7,2.1-3.3,5.4-4.6,8.8c-2.9,7.3-4.8,15.3-4.8,15.3
		c-3.6,17.4-7.7,29-10.8,36.4h-17.5l11.2-48.3c2.4-1.7,4.5-3.6,6.3-5.5c12.4-13.1,13-28.8,13-28.8c3.4-32.4,19.1-44.8,19.6-45.2
		C655,3279.3,652.9,3297.5,653.2,3306.9z"/>
	<path class="st11" d="M596.5,3280.5c2.2,27-3.6,91.5-6.2,117.8h-21.8v-72.6c0.1-8.6,0.6-16.9,1.4-25c1.6-15.6,4.3-30,6.9-42.2
		c2.4-11.3,4.7-20.8,6.1-27.4c3.5-17.5-1.8-21,0.3-48c2.1-26.4,10.5-40.7,10.8-41.3c-0.2,0.6-4.8,14,0,33.3
		c4.9,19.6,0.5,29.8,3.1,44.8c2.4,13.6-2.8,24.8-1.1,54.3C596.2,3276.2,596.3,3278.3,596.5,3280.5z"/>
	<path class="st3" d="M615.4,3304.8c-6.7,12.6-5.3,17.9-5.3,17.9c0.2,2.7,0.3,5.3,0.4,7.9c0.1,3.6,0.2,7.2,0.2,10.7
		c0,24.2-2.8,45-4.8,57h-28.6c0.3-1.5,0.5-3,0.8-4.6c0.6-3.8,1-7.9,1.4-12.4c0.3-3.4,0.5-7,0.7-10.9c0.6-10.8,1-23.6,1.5-38.9
		c1.4-38.4,8.1-34.2,14.3-57.2c0.1-0.5,0.3-1.1,0.4-1.6c6.3-24.9,6.3-45.5,6.3-45.5c-2.8-39.6,9.8-64.1,9.8-64.1
		c-1.4,11.9-2.1,17.9,1.1,43.8c3.1,25.9,2.4,37.1,2.4,37.1l-1.2,16.3c-0.4,5.7,0.1,11.6,1.5,17.1c0.1,0.2,0.1,0.5,0.2,0.7
		C619.2,3288.5,620.6,3294.9,615.4,3304.8z"/>
	<path class="st3" d="M630.5,3247c0,0-12.3,14.4-16.5,44.1l-7.4,35.7l3.5,15.1l14.7-18.2C624.9,3323.7,622.8,3263.1,630.5,3247z"/>
	<path class="st12" d="M642.6,3273.1c0.2,13-0.4,23.9-4.1,36.2c-2.8,9.4-8.1,7.7-10.5,35v0.1c-2.4,27.3-6.6,33.2-6.6,33.2l-8.8,20.6
		h-13.4l4-25.8c2.5-15.8,3.5-26.6,5.7-35.9c0.5-2,1-4,1.6-5.9c1.7-5.3,4.1-10.4,7.7-16c3.4-5.2,5.3-8.4,6.4-11.3
		c2.5-6.3,1.3-10.7,4.5-31.5c2-13.3,15.4-41.8,23.1-53.1C649.1,3232,642.4,3259.8,642.6,3273.1z"/>
</g>
<g>
	<g>
		<g>
			<g>
				<path class="st11" d="M2168.4,2319.9c0,0-25.9-93.3,50.6-179.6c76.6-86.2,65.2-128.7,59.6-196.4c0,0,50.8,102.3-29.2,207.9
					C2169.4,2257.5,2168.4,2319.9,2168.4,2319.9z"/>
				<path class="st3" d="M2190.8,2058.7c0,0-29.5,65.8,10.5,136.8s-32.6,124.2-32.6,124.2s15.1-7.3,30.4-22.6
					c31.3-31.3,38.4-81.1,17.2-120.8C2203.4,2151.9,2182.7,2104.2,2190.8,2058.7z"/>
				<path class="st11" d="M2164.1,2381.3c0,0,3.5-23.2,33.2-53.2l151-178.1c0,0-27.4,93.1-74.5,144.6c0,0-29.5,33.2-72.6,60.1
					C2158.1,2381.7,2164.1,2381.3,2164.1,2381.3z"/>
				<path class="st11" d="M1956.5,2684.2c0,0,52.6-18,95.8,23.5c43.2,41.4,52.9,42.7,75.2,42l-11.7,28.8c0,0-25,4.9-67.1-46.4
					c-12-14.7-26.5-26.3-43-34.7C1991.9,2690.4,1974.8,2684.4,1956.5,2684.2z"/>
				<path class="st3" d="M1989,2485.6c0,0-2.3,95.9,56.5,135.1c58.8,39.2,98.4,33.7,115.7,143.6l-12.4-10.7c0,0-17.3-54-48.9-69.9
					c-31.6-15.9-73.6-26.2-105.7-83.9C1994.1,2599.7,1971.3,2558.3,1989,2485.6z"/>
				<path class="st11" d="M1926.9,2473.5c0,0,11.1,104.4,115.2,131.6c104.1,27.2,108.6,54.1,108.6,54.1l5.3-13.1
					c0,0-24.3-40.6-90.5-67.6C1999.2,2551.5,1948.6,2523.8,1926.9,2473.5z"/>
				<path class="st11" d="M1952.9,2367.4c0,0,26.2,148.6,120.9,193.2l81.1,36.9c0,0-20.8-48.3-90.2-79.9c0,0-38.9-20.8-66.1-84.4
					C1971.5,2369.6,1952.9,2367.4,1952.9,2367.4z"/>
				<path class="st11" d="M1967.9,2333.9c0,0,69.5,48.7,96.7,126.3c27.2,77.6,94.9,83.6,94.9,83.6l-1.8,11.6
					c0,0-93.4,10.3-106.1-56.1C2039.1,2433,1999.2,2365.2,1967.9,2333.9z"/>
				<g>
					<path class="st11" d="M2337.3,2685.7c0,0-52.6-18-95.8,23.5c-43.2,41.4-52.9,42.7-75.2,42l11.7,28.8c0,0,25,4.9,67.1-46.4
						c12-14.7,26.5-26.3,43-34.7C2301.9,2691.9,2319,2685.9,2337.3,2685.7z"/>
					<path class="st3" d="M2326.7,2505c0,0,2.3,95.9-56.5,135.1c-58.8,39.2-98.4,33.7-115.7,143.6l12.4-10.7c0,0,17.3-54,48.9-69.9
						c31.6-15.9,73.6-26.2,105.7-83.9C2321.6,2619.1,2344.4,2577.7,2326.7,2505z"/>
					<path class="st11" d="M2388.8,2473.5c0,0-13,105.3-121.2,134.4c-108.2,29.1-113.3,56.3-113.3,56.3l-5.3-13.1
						c0,0,25.8-41.2,94.8-69.5C2312.8,2553.2,2365.5,2524.5,2388.8,2473.5z"/>
					<path class="st11" d="M2367.7,2359.2c0,0-30,150.3-129.5,197.2l-85.3,38.8c0,0,22.6-49.1,95.5-82.3c0,0,40.9-21.7,70.4-86.4
						C2348.3,2361.8,2367.7,2359.2,2367.7,2359.2z"/>
					<path class="st11" d="M2347.7,2333.9c0,0-69.5,48.7-96.7,126.3s-94.9,83.6-94.9,83.6l1.8,11.6c0,0,93.4,10.3,106.1-56.1
						C2276.6,2433,2316.5,2365.2,2347.7,2333.9z"/>
				</g>
				<path class="st3" d="M1962.9,2252.4c0,0,58.6,46.9,90.7,137.6c32.1,90.7,88.2,114.7,107.3,111l0.5-12.2c0,0-22.1,3.9-79.1-90.3
					C2025.3,2304.1,2048.1,2302,1962.9,2252.4z"/>
				<path class="st11" d="M2094.9,2287.6c0,0-38.3,47.8,1,95.2c0,0,4.6,6.7,20.8,17.2s37.1,27.7,44.6,45.2c0,0-93.2-30-104-72.2
					C2046.7,2330.9,2094.9,2287.6,2094.9,2287.6z"/>
				<path class="st3" d="M2123.3,2077.9c0,0-36.6,47-9.4,113.7c27.2,66.7,54.7,128.9,54.7,128.9s-7.2-64.7-25.2-107.7
					C2123.3,2164.8,2110,2110.7,2123.3,2077.9z"/>
				<path class="st11" d="M2059.3,2149.7c0,0,2.8,51,1,84.3s4,51.5,24.3,91.8s77.1,109.6,77.1,109.6s0.3-31.4-25.7-93
					c-13-30.7-32-57.6-43.4-89.3c-3.3-9.2-6.2-18.6-8.1-28.3C2074.6,2176.9,2072.2,2175.8,2059.3,2149.7z"/>
				<path class="st11" d="M2172,2282.6c0,0-2.9,31.1-6.1,77.9c-0.8,11.7-1.6,24.4-2.4,37.8c-0.7,13.4-1.6,27.5-2.3,42.2
					c-0.7,14.6-1.5,29.7-2,45.1c-0.3,7.7-0.6,15.4-0.9,23.2c-0.2,7.8-0.4,15.6-0.6,23.4c-0.5,15.6-0.6,31.2-0.8,46.6
					c-0.3,15.4,0,30.5,0,45.1s0.6,28.7,0.9,42.1c0.3,13.4,1.2,26,1.7,37.7c0.2,2.9,0.3,5.8,0.4,8.6c0.2,2.8,0.5,5.5,0.7,8.1
					c0.4,5.3,0.9,10.3,1.3,15c0.4,4.7,0.8,9.1,1.1,13.2c0.5,4.1,1,7.8,1.4,11.1c1.7,13.5,2.7,21.1,2.7,21.1l-10.6,1.5
					c0,0-0.8-7.8-2.3-21.5c-0.4-3.4-0.8-7.2-1.2-11.3c-0.3-4.1-0.6-8.6-0.9-13.4c-0.3-4.8-0.6-9.9-0.9-15.2
					c-0.2-2.7-0.3-5.4-0.5-8.2c-0.1-2.8-0.2-5.7-0.3-8.6c-0.3-11.8-0.9-24.5-0.9-37.9c0-13.5-0.3-27.7,0-42.3
					c0.3-14.7,0.3-29.8,1-45.2c0.5-15.4,1-31,1.8-46.6c0.4-7.8,0.7-15.6,1.1-23.4c0.5-7.8,0.9-15.5,1.4-23.2c0.8-15.4,2-30.5,3-45.1
					s2.2-28.7,3.2-42.1c1.1-13.4,2.2-26,3.2-37.7C2168.5,2313.7,2172,2282.6,2172,2282.6z"/>
				<path class="st3" d="M2264.9,2323.1c0,0-11,128.5-103.5,165.6l-0.5,12.2C2160.8,2500.9,2333.5,2432,2264.9,2323.1z"/>
				<path class="st11" d="M2161.2,2463.8c0,0,24.7-64.8,67.8-91.8c0,0,76.5-55.2,95.9-85.2c0,0-3.4,91.6-92.4,127.2
					C2232.5,2414,2187,2428.9,2161.2,2463.8z"/>
			</g>
			<g>
				<path class="st11" d="M2157.5,2753.3c-14.2,5.7-20.4-3.8-20.4-3.8c-19.5-14.1-35.6,2.4-39.2,6.6c-0.4,0.5-0.8,1-1.2,1.6
					l-12,18.2c-23.1,19.8-23.1-20.7-23.1-20.7c0-12.2,8.9-31.1,31.9-46.2c23.1-15.1,19.5-29.2,19.5-29.2
					c-2.1-28.8-23.3-25.2-32.4-22.3c-3.9,1.3-8.1,1.1-11.9-0.5c-21-8.6-10.4-38-6.6-46.8c1.1-2.5,2-5.3,2.6-8
					c11-49.4-37.4-65.2-37.4-65.2s-48.4,15.8-37.4,65.2c0.6,2.7,1.5,5.4,2.6,8c3.8,8.8,14.4,38.2-6.6,46.8c-3.8,1.6-8,1.7-11.9,0.5
					c-9-2.9-30.3-6.6-32.4,22.3c0,0-3.5,14.1,19.5,29.2c23.1,15.1,31.9,33.9,31.9,46.2c0,0,0,40.5-23.1,20.7l-12-18.2
					c-0.4-0.5-0.8-1.1-1.2-1.6c-3.6-4.2-19.7-20.7-39.2-6.6c0,0-6.2,9.4-20.4,3.8c-14.2-5.7-43.5-2.8-36.4,24.5c0,0,9.8,15.1,8,27.3
					s4.4,40.5,27.5,32s31.1,11.3,31.1,11.3s14.2,17,33.7,17h13.3c0,0,12.4,0,12.4,18.8c0,0,0.9,18.8-17.7,18.8h-17.7
					c0,0-26.6-1.9-23.1,27.3c0,0,1.8,15.1,29.3,26.4c21.5,8.8,49.5,40,16,54.6c-8.8,3.8-19.7,13.7-19.3,24.6
					c0.5,14.9,15.2,18.6,26.4,20.6c16,2.8,23.1,10.4,24,19.8v17.9c0,0,0.4,20.7,22.6,27.3c22.2-6.6,22.6-27.3,22.6-27.3v-17.9
					c0.9-9.4,8-17,24-19.8c11.2-2,25.8-5.7,26.4-20.6c0.4-10.9-10.5-20.8-19.3-24.6c-33.6-14.6-5.6-45.8,16-54.6
					c27.5-11.3,29.3-26.4,29.3-26.4c3.5-29.2-23.1-27.3-23.1-27.3h-17.7c-18.6,0-17.7-18.8-17.7-18.8c0-18.8,12.4-18.8,12.4-18.8
					h13.3c19.5,0,33.7-17,33.7-17s8-19.8,31.1-11.3s29.3-19.8,27.5-32s8-27.3,8-27.3C2201,2750.5,2171.7,2747.6,2157.5,2753.3z"/>
				<path class="st3" d="M2338.9,2948.9c-6.9-3.2-10.9-6.8-13.2-9.7s-2.8-5-2.8-5c-5.9-9.5-13.5-15.1-20.3-18.1s-12.8-3.4-15-3.4
					c-0.5,0-1,0-1.5,0.1c0,0-4.1,0.6-8.3,1.2c-4.2,0.7-8.4,1.4-8.4,1.4c-6.7-0.7-10.9-2.5-13.3-5c-2.5-2.5-3.2-5.7-3-8.8
					s1.2-6.2,2.2-8.4c1-2.3,2-3.8,2-3.8c2.4-3.5,7.3-6.6,14.7-7.8c7.5-1,17.2-0.4,29.4,4c12.1,4.3,18.6,4.3,22.3,3.3
					c3.6-1,4.2-3.3,4.2-3.3c9.4-14.2-7.2-28.9-15.3-34.5c-3.4-2.4-6.5-5.7-8.6-9.3c-5.8-10.1-3.2-17,1.8-21.2s12.2-5.7,15.6-6
					c2-0.2,3.9-0.7,5.6-1.4c7.9-3,12.3-7.8,14.8-13.7s3.1-12.9,2.9-19.6c-0.2-6.8-1.2-13.4-2-18.4c-0.7-5-1.6-8.3-1.6-8.3
					s-2.2-2.5-5.8-5.9c-3.7-3.3-9.1-7.2-15.5-9.9s-13.8-4.1-21.3-2.6c-7.4,1.6-14.8,6.2-20.7,15.2c-1.3,2-2.3,4.2-3.2,6.5
					c-1.5,4-4.6,12.2-9.6,18c-5.1,5.8-12,9.3-22.2,3.8c-3.7-2-6.9-5.1-9.1-8.8c-2.5-4.4-7.1-11.2-13.4-14.9
					c-6.4-3.7-14.5-3.9-23.9,5.2c0,0-2.7,1.8-4.3,7s-1.8,13.8,3.4,27c5.1,13.1,7.7,24.3,7.9,33c0.4,8.8-1.2,15.4-4,19.5
					c0,0-1.1,1.7-2.9,3.9c-1.8,2.2-4.4,4.7-7.3,6.5c-2.9,1.7-6.2,2.7-9.4,1.5s-6.6-4.6-9.3-11.6c0,0-0.5-5.1-1-10.2
					c-0.5-5.2-0.9-10.3-0.9-10.3c-0.1-0.6-0.1-1.3-0.3-1.9c-0.5-2.6-2.1-9.5-6.4-16.1c-4.3-6.5-11.4-12.9-23.3-13.7
					c0,0-2.5,0.8-6.2,0s-8.5-3.3-13-10s-13.2-14.3-22-16.7c-8.9-2.4-17.8,0.8-22.2,14.7c0,0,0.1,4.8-0.6,10.7
					c-0.7,5.9-2.6,12.9-6.3,17.8c-3.7,4.9-7.7,14.4-7.3,23.2c0.4,8.9,5,16.9,17.3,19.2c12.3,2.4,18.1,8.9,21,14.6
					c2.8,5.7,2.7,10.7,2.7,10.7s0.4,1.3,1.3,3.4c0.9,2.1,2.3,5,4.3,8.2c3.9,6.4,10.2,13.8,19.3,18.5l12.4,6.4c0,0,2.9,1.5,4.9,4.8
					c2.1,3.3,3.3,8.2,0.3,15.3c0,0-5.2,14.4-22.8,6.4l-16.8-7.7c0,0-24.7-13.2-30.7,12.8c0,0-0.7,3.4,1.5,9.2s7.4,14.1,19.2,23.7
					c9.2,7.5,18.9,19.9,21.7,30c1.4,5.1,1.2,9.7-1.7,13.1c-2.8,3.4-8.4,5.7-17.5,6c-4.8,0.2-10.5,1.5-15.2,3.9
					c-4.6,2.4-8.3,6-9.2,10.5c-2.5,12.4,11.6,19.2,22.5,23.6c15.6,6.3,21.5,13.8,20.9,21.3c0,0-0.7,3.5-1.4,6.9
					c-0.6,3.5-1.3,6.9-1.3,6.9s-0.6,4.1,1.5,9.3s6.9,11.6,17.8,16.1c11.7-0.4,18.4-4.4,22.1-8.2c3.7-3.8,4.5-7.6,4.5-7.6
					s0.6-3.3,1.2-6.5c0.7-3.2,1.4-6.5,1.4-6.5c2.3-6.6,10.6-10.3,27.1-8.3c11.5,1.4,26.8,2.6,29.8-7c1.1-3.5-0.7-7.7-3.8-11.7
					c-3-3.9-7.2-7.7-11.3-10.3c-15.2-9.9-14.6-18.6-6.8-24c7.7-5.4,21.8-7.7,33.3-6.5c14.7,1.5,23.1,0.3,28-1.3c4.8-1.6,6-3.7,6-3.7
					c10-15.4-15.7-26-15.7-26l-16.8-7.7c-17.8-8-11.7-19.9-11.7-19.9c2.5-6.1,6.9-7.6,10.5-7.6s6.5,1.5,6.5,1.5l12.4,6.4
					c9.1,4.7,18,6.3,24.7,6.8c3.3,0.3,6.1,0.3,8,0.2s3-0.2,3-0.2s3.2-1.7,8.7-1.2c5.5,0.4,13.3,3.1,22.7,11.2
					c9.4,8.1,17.4,9.4,23,8.1c5.6-1.3,9.1-5.1,9.8-8.4c0.7-3.3,4.3-5,7.5-6c3.3-1,6.3-1.1,6.3-1.1c6.6-3.3,3.7-9.9-2.2-16.4
					C2355.1,2958.8,2345.8,2952.1,2338.9,2948.9z"/>
				<path class="st3" d="M2006.4,3139.4h156v-101.2c0-45.7-34.9-82.8-78-82.8c-43.1,0-78,37.1-78,82.8L2006.4,3139.4L2006.4,3139.4z
					"/>
				<g>
					<path class="st11" d="M2137.9,3060.2c-0.1-11.9-8.1-33.6-29.8-42c-27.9-10.8-72.8,3-72.8,3s15.9,32.7,41.9,47.8
						c22.9,13.3,48,8.9,55.1-1v146.2h5.7v-143L2137.9,3060.2z"/>
					<path class="st11" d="M2153.4,2966.3c-0.1-19.1-13.1-54-47.9-67.4c-44.7-17.3-117,4.9-117,4.9s25.5,52.5,67.3,76.7
						c36.8,21.3,77.2,14.4,88.4-1.6v234.9h9.1V2984L2153.4,2966.3z"/>
					<path class="st11" d="M2161.5,3018.4v98.1c0.6,0,1.2,0,1.9,0c1.9,0,3.7,0.1,5.5,0.4v-88.3c5.4,7.7,19.2,12.8,35.8,12.1
						c11.4-0.5,24-3.7,36.2-10.8c34-19.7,54.8-62.5,54.8-62.5s-54.4-16.7-91-5.4c-1.5,0.4-2.9,0.9-4.3,1.5
						C2172.1,2974.4,2161.6,3002.8,2161.5,3018.4z"/>
					<g>
						<path class="st8" d="M2142.3,2971.9c0,0-18.4-78.8-134.3-57.9C2008,2914,2096.4,2909.6,2142.3,2971.9z"/>
						<path class="st8" d="M2142.3,2971.9c0,0-18.4-54.4-99-31.2C2043.3,2940.7,2105.5,2931.1,2142.3,2971.9z"/>
					</g>
					<g>
						<path class="st8" d="M2169.4,3021.4c0,0,13.7-58.7,100-43.1C2269.4,2978.3,2203.6,2975,2169.4,3021.4z"/>
						<path class="st8" d="M2169.4,3021.4c0,0,13.7-40.5,73.7-23.2C2243.1,2998.2,2196.8,2991.1,2169.4,3021.4z"/>
					</g>
					<g>
						<path class="st8" d="M2131.5,3060.7c0,0-11.5-49.2-83.8-36.2C2047.7,3024.6,2102.8,3021.8,2131.5,3060.7z"/>
						<path class="st8" d="M2131.5,3060.7c0,0-11.5-34-61.8-19.5C2069.7,3041.3,2108.5,3035.3,2131.5,3060.7z"/>
					</g>
				</g>
			</g>
		</g>
		<path class="st11" d="M1936.9,3223.7c2,5.6,4.5,10.8,7.5,15.8c3,4.9,6.5,9.5,10.4,13.7c19.1,20.2,29.8,47.6,29.8,76.2v60.9
			c0,4.4,3.3,7.9,7.5,7.9h183.1c4.1,0,7.5-3.5,7.5-7.9v-56.8c0-30.2,11.3-59.1,31.4-80.4c7.9-8.4,14-18.5,17.9-29.5
			c24.5-68.9-28.2-106.2-48-117.5c-4.2-2.4-9-3.7-13.8-3.7h-171.4c-4.8,0-9.6,1.2-13.8,3.7
			C1965.1,3117.5,1912.4,3154.8,1936.9,3223.7z"/>
	</g>
	<path class="st3" d="M2109.1,3256.3h16.2c0.6-0.4,1.2-0.9,1.7-1.4s1.1-1.1,1.6-1.6c7.9-8.4,14-18.5,17.9-29.5
		c24.5-68.9-28.2-106.2-47.9-117.5c-4.3-2.4-9-3.7-13.9-3.7h85.3c4.8,0,9.6,1.3,13.8,3.7c19.8,11.2,72.4,48.6,48,117.5
		c-3.9,11.1-10,21.2-17.9,29.5c-20.1,21.3-31.4,50.2-31.4,80.4v56.8c0,4.4-3.3,7.9-7.5,7.9h-61.4v-65.6h-4.6
		c-19.9,0-36-17.1-36-38.2C2073.1,3273.4,2089.2,3256.3,2109.1,3256.3z"/>
</g>
<g>
	<path class="st8" d="M2026.8,3295.8c0,56.5-45.8,102.2-102.2,102.2h-824c-56.5,0-102.2-45.8-102.2-102.2v-1614
		c0-56.5,45.8-102.2,102.2-102.2h824c56.5,0,102.2,45.8,102.2,102.2V3295.8z"/>
	<path class="st13" d="M1924.5,1610.7c39.2,0,71.1,31.9,71.1,71.1v1614c0,39.2-31.9,71.1-71.1,71.1h-824
		c-39.2,0-71.1-31.9-71.1-71.1v-1614c0-39.2,31.9-71.1,71.1-71.1L1924.5,1610.7L1924.5,1610.7z"/>
	<g>
		
			<ellipse transform="matrix(0.2274 -0.9738 0.9738 0.2274 -1929.8251 3930.2341)" class="st14" cx="1512" cy="3181.3" rx="75.9" ry="75.9"/>
		<rect x="1470.8" y="3171.5" class="st15" width="82.4" height="19.6"/>
	</g>
	<g>
		<g>
			<circle class="st14" cx="1233.7" cy="3183.9" r="78.5"/>
			<g class="st16">
				<rect x="1223.9" y="3142.7" class="st8" width="19.6" height="82.4"/>
				<rect x="1192.5" y="3174.1" class="st8" width="82.4" height="19.6"/>
			</g>
		</g>
		<g>
			<circle class="st14" cx="1790.3" cy="3183.9" r="78.5"/>
			<g class="st16">
				<g>
					<rect x="1749.1" y="3142.7" class="st8" width="82.4" height="19.6"/>
					<rect x="1749.1" y="3205.5" class="st8" width="82.4" height="19.6"/>
				</g>
				<rect x="1749.1" y="3174.1" class="st8" width="82.4" height="19.6"/>
			</g>
		</g>
	</g>
	<g>
		<path class="st8" d="M1728.3,1687.9c0,48.5-39.3,87.9-87.9,87.9h-255.6c-48.5,0-87.9-39.3-87.9-87.9V1608h431.4V1687.9z"/>
		<path class="st17" d="M1669.7,1662.7c0,6.6-5.4,12-12,12h-290.2c-6.6,0-12-5.4-12-12s5.4-12,12-12h290.2
			C1664.3,1650.7,1669.7,1656,1669.7,1662.7z"/>
		<circle class="st17" cx="1512.6" cy="1713.9" r="21.3"/>
	</g>
	<g>
		<path id="XMLID_4_" class="st8" d="M2030.4,1861.7h-3.9v167.1h3.9c5.8,0,10.6-4.7,10.6-10.6v-146
			C2041,1866.4,2036.3,1861.7,2030.4,1861.7z"/>
		<path id="XMLID_3_" class="st8" d="M2030.4,1712.2h-3.9v99h3.9c5.8,0,10.6-4.7,10.6-10.6v-77.9
			C2041,1717,2036.3,1712.2,2030.4,1712.2z"/>
	</g>
</g>
<g>
	<polygon class="st18" points="496.5,1456.1 496.5,1523.2 300.2,1392 	"/>
	
		<linearGradient id="SVGID_4_" gradientUnits="userSpaceOnUse" x1="18578.8184" y1="2861.7437" x2="18341.7715" y2="2749.2986" gradientTransform="matrix(-1 0 0 -1 18827.7578 4218)">
		<stop  offset="0" style="stop-color:#FCE2E9"/>
		<stop  offset="1" style="stop-color:#FFFFFF"/>
	</linearGradient>
	<polygon class="st19" points="550.5,1414.5 496.5,1456.1 300.2,1392 478.6,1475.3 422.1,1523.2 278.3,1383.6 	"/>
	<polygon class="st20" points="478.6,1475.3 496.5,1523.2 454.5,1495.7 	"/>
</g>
<g>
	<path class="st2" d="M1686.8,1697.9L1653,1789c-3.5,9.3-1.6,19.8,4.8,27.4c8.4,9.9,19.5,17.9,19.5,17.9l3,14.8l-15.4-3l-43.4-40.7
		l30.1-115.4L1686.8,1697.9z"/>
	<path class="st3" d="M1621.5,1805.5c0,0-16.9,16.4-20.5,39.2l118.7,23.3c2,0.4,4.1-0.5,5.2-2.3s0.9-4.1-0.4-5.7
		c-3.2-3.9-9.1-7.6-19.9-7.6c-2.7,0-5.2-0.9-7.3-2.5l-19.9-15.5l-5.7,6.1L1621.5,1805.5z"/>
</g>
<g>
	<path class="st8" d="M512.4,1533.8c-1.6,0-3.3-0.7-4.4-1.8c-1.2-1.2-1.9-2.8-1.9-4.5s0.7-3.3,1.9-4.4c2.3-2.4,6.6-2.4,8.9,0
		c1.2,1.2,1.8,2.8,1.8,4.4c0,1.7-0.7,3.3-1.8,4.4C515.6,1533.1,514,1533.8,512.4,1533.8z"/>
	<path class="st8" d="M1413.4,2428.3c-3.5-0.4-5.9-3.6-5.5-7l0,0c0.4-3.4,3.6-5.9,7-5.5l0,0c3.5,0.4,5.9,3.6,5.5,7l0,0
		c-0.4,3.2-3.1,5.5-6.3,5.5l0,0C1413.9,2428.3,1413.6,2428.3,1413.4,2428.3z M1381.6,2422.6c-3.4-0.8-5.5-4.2-4.7-7.6l0,0
		c0.8-3.4,4.2-5.5,7.6-4.7l0,0c3.4,0.8,5.5,4.2,4.7,7.6l0,0c-0.7,2.9-3.3,4.9-6.1,4.9l0,0
		C1382.6,2422.8,1382.1,2422.8,1381.6,2422.6z M1350.6,2413.7L1350.6,2413.7c-3.3-1.1-5.1-4.7-3.9-8l0,0c1.1-3.3,4.7-5,8-3.9l0,0
		c3.3,1.1,5,4.7,3.9,8l0,0c-0.9,2.6-3.3,4.3-6,4.3l0,0C1352,2414.1,1351.3,2413.9,1350.6,2413.7z M1320.7,2401.9
		c-3.2-1.4-4.6-5.1-3.2-8.3l0,0c1.4-3.2,5.1-4.6,8.3-3.2l0,0c3.2,1.4,4.6,5.1,3.2,8.3l0,0c-1,2.3-3.3,3.7-5.8,3.7l0,0
		C1322.4,2402.5,1321.5,2402.3,1320.7,2401.9z M1291.9,2387.6c-3.1-1.7-4.2-5.5-2.5-8.6l0,0c1.7-3.1,5.5-4.2,8.6-2.5l0,0
		c3.1,1.7,4.2,5.5,2.5,8.6l0,0c-1.2,2.1-3.3,3.2-5.5,3.2l0,0C1293.9,2388.4,1292.9,2388.1,1291.9,2387.6z M1264.4,2371
		c-2.9-1.9-3.7-5.8-1.8-8.7l0,0c1.9-2.9,5.8-3.7,8.7-1.8l0,0c2.9,1.9,3.7,5.8,1.8,8.7l0,0c-1.2,1.9-3.2,2.8-5.3,2.8l0,0
		C1266.7,2372,1265.5,2371.7,1264.4,2371z M1238.3,2352.4c-2.8-2.1-3.3-6.1-1.1-8.8l0,0c2.1-2.8,6.1-3.3,8.8-1.1l0,0l0,0l0,0
		c2.8,2.1,3.3,6.1,1.1,8.8l0,0c-1.2,1.6-3.1,2.5-5,2.5l0,0C1240.8,2353.7,1239.5,2353.3,1238.3,2352.4z M1213.7,2331.9
		c-2.6-2.3-2.8-6.3-0.5-8.9l0,0c2.3-2.6,6.3-2.8,8.9-0.5l0,0l0,0l0,0c2.6,2.3,2.8,6.3,0.5,8.9l0,0c-1.3,1.4-3,2.1-4.7,2.1l0,0
		C1216.4,2333.5,1214.9,2333,1213.7,2331.9z M1190.6,2309.6c-2.4-2.5-2.3-6.5,0.2-8.9l0,0c2.5-2.4,6.5-2.3,8.9,0.2l0,0
		c2.4,2.5,2.3,6.5-0.2,8.9l0,0c-1.2,1.2-2.8,1.7-4.4,1.7l0,0C1193.5,2311.5,1191.9,2310.9,1190.6,2309.6z M1169.3,2285.7
		c-2.2-2.7-1.8-6.6,0.9-8.9l0,0c2.7-2.2,6.6-1.8,8.9,0.8l0,0c2.2,2.7,1.8,6.7-0.9,8.9l0,0c-1.2,1-2.6,1.4-4,1.4l0,0
		C1172.4,2288,1170.6,2287.2,1169.3,2285.7z M1149.9,2260.2c-2-2.8-1.4-6.7,1.4-8.8l0,0c2.8-2,6.8-1.4,8.8,1.5l0,0l0,0l0,0
		c2,2.8,1.4,6.8-1.4,8.8l0,0c-1.1,0.8-2.4,1.2-3.7,1.2l0,0C1153.1,2262.8,1151.2,2261.9,1149.9,2260.2z M1132,2233.8L1132,2233.8
		c-1.9-2.9-1-6.8,1.9-8.7l0,0c2.9-1.9,6.8-1,8.7,1.9l0,0l0,0l0,0c1.9,2.9,1,6.8-1.9,8.7l0,0c-1,0.7-2.2,1-3.4,1l0,0
		C1135.2,2236.7,1133.2,2235.7,1132,2233.8z M1115.5,2206.5c-1.7-3-0.7-6.9,2.3-8.6l0,0c3-1.7,6.9-0.7,8.6,2.3l0,0l0,0l0,0
		c1.7,3,0.7,6.9-2.3,8.6l0,0c-1,0.6-2.1,0.8-3.2,0.8l0,0C1118.8,2209.7,1116.6,2208.6,1115.5,2206.5z M1100.3,2178.4L1100.3,2178.4
		c-1.5-3.1-0.3-6.9,2.8-8.5l0,0c3.1-1.5,6.9-0.3,8.4,2.8l0,0c1.6,3.1,0.3,6.9-2.8,8.5l0,0c-0.9,0.4-1.9,0.7-2.8,0.7l0,0
		C1103.7,2181.9,1101.5,2180.6,1100.3,2178.4z M1086.7,2149.5c-1.4-3.2,0.1-6.9,3.2-8.3l0,0c3.2-1.4,6.9,0.1,8.3,3.2l0,0
		c1.4,3.2,0,6.9-3.2,8.3l0,0c-0.8,0.4-1.7,0.5-2.6,0.5l0,0C1090.1,2153.3,1087.8,2151.9,1086.7,2149.5z M1074.5,2120.2
		L1074.5,2120.2c-1.4-3.2,0.2-6.9,3.4-8.2l0,0c3.2-1.4,6.9,0.2,8.2,3.4l0,0l0,0l0,0c1.4,3.2-0.2,6.9-3.4,8.3l0,0
		c-0.8,0.3-1.6,0.5-2.4,0.5l0,0C1077.9,2124.1,1075.5,2122.7,1074.5,2120.2z M1061.7,2091.9L1061.7,2091.9c-1.6-3.1-0.3-6.9,2.8-8.5
		l0,0c3.1-1.5,6.9-0.3,8.4,2.8l0,0l0,0l0,0c1.6,3.1,0.3,6.9-2.8,8.4l0,0c-0.9,0.4-1.9,0.7-2.8,0.7l0,0
		C1065,2095.3,1062.8,2094.1,1061.7,2091.9z M1046.3,2065.3L1046.3,2065.3c-2-2.9-1.2-6.8,1.6-8.8l0,0c2.9-2,6.8-1.3,8.8,1.6l0,0
		c2,2.9,1.3,6.8-1.6,8.8l0,0c-1.1,0.7-2.3,1.1-3.6,1.1l0,0C1049.5,2068,1047.5,2067,1046.3,2065.3z M847.8,2050.2
		c-0.2-3.5,2.5-6.4,5.9-6.6l0,0c3.5-0.2,6.5,2.5,6.7,5.9l0,0c0.2,3.5-2.5,6.5-6,6.7l0,0c-0.1,0-0.2,0-0.3,0l0,0
		C850.7,2056.1,848,2053.5,847.8,2050.2z M821.2,2052.1c-3.4-0.9-5.4-4.3-4.5-7.7l0,0c0.9-3.4,4.3-5.4,7.7-4.5l0,0
		c3.3,0.9,5.4,4.3,4.5,7.7l0,0c-0.8,2.8-3.3,4.7-6.1,4.7l0,0C822.3,2052.3,821.8,2052.3,821.2,2052.1z M878.9,2045.3
		c-1.1-3.3,0.6-6.9,3.9-8l0,0l0,0l0,0c3.3-1.1,6.9,0.6,8,3.9l0,0c1.1,3.3-0.6,6.9-3.9,8l0,0c-0.7,0.2-1.4,0.3-2,0.3l0,0
		C882.2,2049.6,879.8,2047.9,878.9,2045.3z M1026.8,2042.4c-2.6-2.4-2.7-6.3-0.4-8.9l0,0c2.4-2.6,6.3-2.7,8.9-0.4l0,0
		c2.6,2.4,2.7,6.3,0.4,8.9l0,0c-1.3,1.4-3,2-4.7,2l0,0C1029.5,2044.1,1028,2043.5,1026.8,2042.4z M790.5,2039.8
		c-3.1-1.7-4.1-5.6-2.4-8.6l0,0c1.7-3,5.6-4.1,8.6-2.4l0,0c3,1.7,4.1,5.5,2.4,8.6l0,0c-1.2,2.1-3.3,3.2-5.5,3.2l0,0
		C792.5,2040.6,791.5,2040.3,790.5,2039.8z M908.3,2033.8c-1.4-3.2,0-6.9,3.2-8.3l0,0c3.2-1.4,6.9,0,8.3,3.2l0,0
		c1.4,3.2,0,6.9-3.2,8.3l0,0c-0.8,0.4-1.7,0.5-2.6,0.5l0,0C911.7,2037.5,909.3,2036.2,908.3,2033.8z M1002.3,2026.1
		c-3.2-1.4-4.6-5.2-3.2-8.3l0,0c1.4-3.2,5.1-4.6,8.3-3.2l0,0c3.2,1.4,4.6,5.1,3.2,8.3l0,0c-1,2.3-3.4,3.7-5.8,3.7l0,0
		C1004,2026.7,1003.1,2026.5,1002.3,2026.1z M937.3,2021.3c-1.1-3.3,0.7-6.9,4-8l0,0l0,0l0,0c3.3-1.1,6.9,0.7,8,4l0,0
		c1.1,3.3-0.7,6.9-4,8l0,0c-0.7,0.2-1.4,0.3-2,0.3l0,0C940.7,2025.6,938.3,2024,937.3,2021.3z M764.1,2019.5L764.1,2019.5
		c-2.4-2.5-2.4-6.5,0.1-8.9l0,0c2.5-2.4,6.5-2.4,8.9,0.1l0,0l0,0l0,0c2.4,2.5,2.4,6.5-0.1,8.9l0,0c-1.2,1.2-2.8,1.8-4.4,1.8l0,0
		C767,2021.4,765.4,2020.7,764.1,2019.5z M967.9,2013.6c0-3.5,2.8-6.3,6.3-6.3l0,0c3.5,0,6.3,2.8,6.3,6.3l0,0c0,3.5-2.8,6.3-6.3,6.3
		l0,0l0,0l0,0C970.8,2019.9,967.9,2017.1,967.9,2013.6z M744.5,1992.8c-1.7-3.1-0.6-6.9,2.5-8.6l0,0c3-1.7,6.9-0.6,8.5,2.5l0,0
		c1.7,3,0.6,6.9-2.5,8.5l0,0c-1,0.5-2,0.8-3.1,0.8l0,0C747.8,1996,745.6,1994.9,744.5,1992.8z M731.9,1962.5c-1-3.3,0.9-6.9,4.2-7.9
		l0,0c3.3-1,6.9,0.9,7.8,4.2l0,0c1,3.3-0.9,6.8-4.2,7.8l0,0c-0.6,0.2-1.2,0.3-1.8,0.3l0,0C735.2,1966.9,732.7,1965.2,731.9,1962.5z
		 M725.1,1930.7L725.1,1930.7c-0.5-3.5,2-6.6,5.4-7.1l0,0c3.5-0.5,6.6,1.9,7.1,5.4l0,0c0.5,3.5-2,6.7-5.4,7.1l0,0
		c-0.3,0-0.6,0.1-0.9,0.1l0,0C728.2,1936.1,725.5,1933.8,725.1,1930.7z M722.6,1898.5L722.6,1898.5c-0.1-3.5,2.7-6.4,6.1-6.4l0,0
		c3.5-0.1,6.4,2.7,6.5,6.1l0,0c0.1,3.5-2.7,6.4-6.1,6.5l0,0c-0.1,0-0.1,0-0.2,0l0,0C725.5,1904.7,722.7,1901.9,722.6,1898.5z
		 M729.2,1873.1c-3.5-0.2-6.1-3.2-5.9-6.7l0,0c0.2-3.5,3.2-6.1,6.7-5.9l0,0c3.5,0.2,6.1,3.2,5.9,6.7l0,0c-0.2,3.3-3,5.9-6.3,5.9l0,0
		C729.5,1873.1,729.3,1873.1,729.2,1873.1z M731.8,1841.6c-3.4-0.4-5.9-3.6-5.5-7.1l0,0c0.5-3.5,3.6-5.9,7.1-5.5l0,0
		c3.5,0.4,5.9,3.6,5.5,7.1l0,0l0,0l0,0c-0.4,3.2-3.1,5.5-6.2,5.5l0,0C732.4,1841.6,732.1,1841.6,731.8,1841.6z M735.7,1810.2
		c-3.5-0.1-6.2-3.1-6.1-6.5l0,0c0.1-3.5,3-6.2,6.5-6.1l0,0c3.5,0.1,6.2,3.1,6.1,6.5l0,0c-0.1,3.4-2.9,6.1-6.3,6.1l0,0
		C735.9,1810.2,735.8,1810.2,735.7,1810.2z M729,1772.9c-0.3-3.5,2.3-6.5,5.8-6.8l0,0c3.5-0.3,6.5,2.3,6.8,5.8l0,0
		c0.3,3.5-2.3,6.5-5.8,6.8l0,0c-0.2,0-0.3,0-0.5,0l0,0C732,1778.7,729.2,1776.2,729,1772.9z M724.6,1742.4c-0.7-3.4,1.5-6.7,4.9-7.5
		l0,0c3.4-0.7,6.7,1.5,7.4,4.9l0,0c0.7,3.4-1.5,6.7-4.9,7.4l0,0c-0.4,0.1-0.9,0.1-1.3,0.1l0,0
		C727.9,1747.4,725.3,1745.3,724.6,1742.4z M716.4,1712.8c-1.2-3.3,0.5-6.9,3.8-8.1l0,0c3.3-1.2,6.9,0.5,8,3.8l0,0l0,0l0,0
		c1.2,3.3-0.5,6.9-3.8,8l0,0c-0.7,0.3-1.4,0.4-2.1,0.4l0,0C719.7,1716.9,717.3,1715.3,716.4,1712.8z M703.9,1684.9
		c-1.7-3-0.6-6.9,2.4-8.6l0,0c3.1-1.7,6.9-0.6,8.6,2.5l0,0c1.7,3.1,0.6,6.9-2.4,8.6l0,0c-1,0.5-2,0.8-3.1,0.8l0,0
		C707.1,1688.2,705,1687,703.9,1684.9z M686.7,1659.8c-2.2-2.7-1.8-6.7,0.9-8.9l0,0c2.7-2.2,6.6-1.9,8.9,0.9l0,0
		c2.2,2.7,1.9,6.7-0.8,8.9l0,0c-1.2,1-2.6,1.4-4,1.4l0,0C689.8,1662.1,688,1661.3,686.7,1659.8z M665.3,1638.4
		c-2.7-2.2-3.1-6.2-0.9-8.9l0,0c2.2-2.7,6.2-3.1,8.9-0.9l0,0c2.7,2.2,3.1,6.2,0.9,8.9l0,0c-1.2,1.5-3.1,2.3-4.9,2.3l0,0
		C667.9,1639.9,666.4,1639.4,665.3,1638.4z M640.1,1621.4c-3.1-1.7-4.2-5.5-2.5-8.5l0,0c1.7-3.1,5.5-4.2,8.6-2.5l0,0
		c3.1,1.7,4.2,5.5,2.5,8.5l0,0c-1.2,2.1-3.3,3.3-5.5,3.3l0,0C642.1,1622.2,641.1,1622,640.1,1621.4z M612.9,1604.3
		c-2.9-2-3.6-5.9-1.6-8.8l0,0c2-2.9,5.9-3.6,8.8-1.6l0,0c2.9,2,3.6,5.9,1.6,8.8l0,0c-1.2,1.8-3.2,2.7-5.2,2.7l0,0
		C615.2,1605.4,614,1605.1,612.9,1604.3z M586.9,1586.4c-2.9-2-3.6-5.9-1.6-8.8l0,0c2-2.9,5.9-3.6,8.8-1.6l0,0
		c2.9,2,3.6,5.9,1.6,8.8l0,0c-1.2,1.8-3.2,2.7-5.2,2.7l0,0C589.2,1587.5,588,1587.2,586.9,1586.4z M560.8,1568.5
		c-2.9-2-3.6-5.9-1.6-8.8l0,0c2-2.9,5.9-3.6,8.8-1.6l0,0c2.9,2,3.6,5.9,1.6,8.8l0,0c-1.2,1.8-3.2,2.7-5.2,2.7l0,0
		C563.2,1569.6,561.9,1569.3,560.8,1568.5z M534.8,1550.6c-2.8-2-3.6-5.9-1.6-8.8l0,0c2-2.9,5.9-3.6,8.8-1.6l0,0
		c2.9,2,3.6,5.9,1.6,8.8l0,0c-1.2,1.8-3.2,2.7-5.2,2.7l0,0C537.2,1551.7,535.9,1551.4,534.8,1550.6z"/>
	<path class="st8" d="M1446,2430.3c-1.6,0-3.3-0.7-4.4-1.9c-1.2-1.2-1.9-2.8-1.9-4.4c0-1.7,0.7-3.3,1.9-4.4c2.3-2.4,6.6-2.4,8.9,0
		c1.2,1.2,1.8,2.8,1.8,4.4c0,1.6-0.7,3.3-1.8,4.4C1449.3,2429.7,1447.6,2430.3,1446,2430.3z"/>
</g>
<g>
	<path class="st8" d="M584.4,2380.2c5.5,4.5,13.1,5.4,21.6,2.6c8.1-2.6,16-8.3,22.4-16.1c6.3-7.8,10.4-16.7,11.4-25.1
		c1-8.9-1.4-16.2-6.8-20.7l-8.6-7l-48.5,59.3L584.4,2380.2z"/>
	<path class="st0" d="M538.1,2373.2c8.9,7.3,21.3,8.8,35.1,4.3c13.1-4.3,26-13.5,36.3-26.1s16.9-27.1,18.5-40.8
		c1.7-14.4-2.3-26.3-11.1-33.6l-13.9-11.4l-78.8,96.2L538.1,2373.2z"/>
	<path class="st17" d="M524.1,2361.7c-8.9-7.3-12.8-19.2-11.1-33.6c1.6-13.7,8.2-28.2,18.5-40.8s23.2-21.9,36.3-26.1
		c13.8-4.5,26.3-3,35.1,4.3c8.9,7.3,12.8,19.2,11.1,33.6c-1.6,13.7-8.2,28.2-18.5,40.8s-23.2,21.9-36.3,26.1
		C545.5,2370.5,533,2369,524.1,2361.7z"/>
	<path class="st8" d="M607.8,2298.3c1.6-13.3-2.1-24.3-10.3-31l-20.5-21.5c-14.6-15.3-27.3-32.2-37.8-50.5L504,2134l-15.6,19.1
		l-4.4-4.6l-101.3,122.9l5.9,3.5l-16.1,19.7l71.2,22c19.7,6.1,38.6,14.4,56.3,25l24.7,14.6c8.2,6.7,19.7,8.1,32.5,4
		c12.1-3.9,24-12.5,33.6-24.1C600.2,2324.3,606.3,2310.9,607.8,2298.3z"/>
	<path class="st8" d="M360.1,2287.2c-15.1-12.4-21.8-32.7-19-57.3c2.7-23.4,13.9-48.1,31.5-69.5c17.6-21.5,39.6-37.3,62-44.6
		c23.6-7.7,44.8-5.1,60,7.3c15.1,12.4,21.8,32.7,19,57.3c-2.7,23.4-13.9,48.1-31.5,69.5c-17.6,21.5-39.6,37.3-62,44.6
		C396.5,2302.2,375.2,2299.6,360.1,2287.2z"/>
	
		<ellipse transform="matrix(0.6336 -0.7736 0.7736 0.6336 -1549.3787 1138.3584)" class="st21" cx="427.2" cy="2205" rx="98.6" ry="63.2"/>
	<path class="st21" d="M476.2,2245.2c-6.7,8.2-14,15.4-21.6,21.5c-24,19.4-51,28.1-72.1,23.3c-11.8-26-2.5-66.5,25.5-100.6
		c27.9-34.1,65.9-51.2,93.6-44.8c8.9,19.7,5.7,47.9-8.6,75.2C488.5,2228.4,482.9,2237,476.2,2245.2z"/>
	<path class="st0" d="M476.2,2245.2c-6.7,8.2-14,15.4-21.6,21.5l-28.8-29.6l32.5-39.7l34.7,22.4
		C488.5,2228.4,482.9,2237,476.2,2245.2z"/>
	<path class="st0" d="M454.8,2227.7c-9,11-22,15.2-29,9.4s-5.4-19.3,3.5-30.3c9-11,22-15.2,29-9.4
		C465.4,2203.1,463.8,2216.7,454.8,2227.7z"/>
	<path class="st22" d="M427.7,2234.8c-5.6-4.6-3.8-16.6,4-26.1s19.1-13.6,24.8-9s3.8,16.6-4,26.1S433.4,2239.4,427.7,2234.8z"/>
</g>
<g>
	<path class="st5" d="M500.7,2428.6c-0.2-2.9-0.3-5.9-0.2-6.3c0.7-3.4,3.1-10.1,3.9-14.2c0.4-2.2,1.7-5,2.9-7.2c0.1-2.6,0.1-5-0.7-6
		c-1.6-2.1-9.2-6.7-11.8-8.5c-2.6-1.9-4.3,0.1-6.2,2.9c-1.9,2.8-9.5,9.1-9.5,9.1s3.6,3.9,7.1,2s4.5-4,4.5-4l2.8,1.6
		c0,0-3.2,1.9-5.8,4c-3.5,2.9-4.4,6.8-4.4,6.8s-12.4-3-17.5-0.7c0,0,5.4,9,9.1,13.1c2.5,2.8,9,8.4,13,11.9l46.2,100.3
		c7.7-2.1,19-7.3,27.5-19.7L500.7,2428.6z"/>
	<path class="st0" d="M535.9,2352.6c0.7,1.2,0.5,2.8-0.4,3.8l-79,93.1c-1.2,1.5-3,2.3-4.9,2.3s-3.7-0.8-5-2.2l0,0
		c-1.6-1.8-1.8-4.5-0.5-6.6l64.2-103.6c0.6-1,1.7-1.6,2.8-1.6C522.4,2337.7,531.3,2344.1,535.9,2352.6z"/>
	<path class="st5" d="M463.7,2403.8c-0.3,2.2,2.8,5.8,4.8,8.8s7.7-0.5,7.4-3c-0.3-2.3-3.3-7.3-5.3-9
		C468.7,2398.9,464.1,2400.3,463.7,2403.8z"/>
	<path class="st5" d="M471.3,2392.9c-2.5,0.5-3.8,4.3-2,7.3c1.6,2.6,4.4,7.5,7.4,8.2c3.5,0.9,5.2-0.4,5-4.2
		C481.5,2400.4,476.5,2391.7,471.3,2392.9z"/>
	<path class="st5" d="M473.5,2386.4c-1.3,1.6-0.2,4.6,1.5,8.7c1.7,4.1,4.7,8.5,7.6,8.6s5.8-2.6,2.5-7.9c-3.3-5.3-5.2-11.4-5.2-11.4
		S476,2383.4,473.5,2386.4z"/>
	<path class="st5" d="M479.5,2380.5c-1.7,1.7-0.6,5.2,1.2,9.3c1.7,4.1,4.7,8.5,7.6,8.6s6.4-0.6,4.8-6.6s-4.2-8.7-6.2-11.3
		C485.7,2378.9,482.7,2377.4,479.5,2380.5z"/>
	<path class="st5" d="M504.3,2408.2l11.2-24.6c0,0-2.6-3.9-7.8,1.2c-0.3,0.3-0.6,0.7-0.8,1l-8.7,13c0,0-14.5,3.4-12.1,16.1l2.6,7.6
		L504.3,2408.2z"/>
</g>
<path class="st3" d="M1745.8,1571.8l-82.3,215.7l-44.8-13.6c5.6-31.9,5.4-34.7,13.2-72.3c10.7-51.3,23.3-99.5,38.1-122h-273
	c-19.7,0-38.1-10-48.7-26.7s-11.9-37.6-3.6-55.4c1.4-2.9,2.3-4.6,2.3-4.6l17.1-15.6l4-3.6l87.5,15l249.4,21.8
	c14.3,1.3,27.2,8.9,35.1,20.9C1748.2,1543.3,1750.3,1558.2,1745.8,1571.8z"/>
<path class="st8" d="M1460.9,1100.9c3.8,8.8,9.4,14.8,12.4,13.5s2.4-9.5-1.5-18.3c-3.8-8.8-9.4-14.8-12.4-13.5
	C1456.4,1084,1457,1092.2,1460.9,1100.9z"/>
<path class="st2" d="M1375.5,1194.3c16-16.1,13.7-31.5,13.7-31.5l-9.6-50.5l27.7-6.1l27.2,28.8c0,0,28.3-50.1,16,12.3
	c-1.1,5.7-2.1,11-2.9,15.8c-3.4,18.8-4.9,31.1-5.5,38.5c-0.6,7.3-0.5,10.1-0.5,10.1L1375.5,1194.3z"/>
<polygon class="st8" points="1373.1,1195 1377.9,1178.8 1446.1,1197.3 1458,1227.1 "/>
<polygon class="st8" points="1446.1,1197.3 1461.4,1214.7 1460.1,1221.4 1452.7,1225.6 "/>
<path class="st23" d="M1483.9,1509.9c-7,3.1-19-1.1-25-4.1c-15.1-7.5-32.2-11.1-48.7-13.5c-7.2-1-14.5-0.6-21.4,1.4
	c-0.8,0.2-1.6,0.4-2.4,0.7c-8.4,2.8-18.8,3.9-28.2,4.1c-4.4,0.1-8.5-2.1-10.9-5.7c-2.4-3.7-2.7-8.4-0.9-12.3
	c7.6-16.2,3.5-31.2,3.5-31.2c-4.5-34.9-19.9-81.8-27.6-121.4c-10.3-53.3,4.4-89.5,4.4-89.5c1.7-4.5,3.7-9.1,6.1-13.5
	c4.6-8.4,10.5-16.1,18.1-21.3c15.9-11.1,36.2-12,54.5-7.3c12.1,3.1,25.8,7.3,36.9,14.6c6.2,4,11.5,8.9,15.4,15.1
	c13.8,22,13.9,49.6,12.6,74.7c-0.4,7.9-2.3,15.1-4.7,22c-6.3,18.2-16.1,34.3-12,54.7c1.3,6.7,3.7,15.9,6.7,26.3
	c6.7,23.6,16.2,53.7,22.4,77.9C1484.4,1488.5,1493.1,1505.8,1483.9,1509.9z"/>
<path class="st8" d="M1458.6,1215.1c0,0,2.1,3.7,5.8,10.1c1.8,3.3,4.3,6.9,6.3,11.9c2.1,4.9,4.8,10.4,7.1,16.6
	c2.1,6.2,4.5,12.9,6.7,20.2c1.8,7.3,4.1,15,5.7,23.2c0.7,4.1,1.5,8.3,2.3,12.5c0.4,2.1,0.8,4.2,1.2,6.4c0.3,2.2,0.5,4.3,0.8,6.5
	c0.5,4.4,1,8.8,1.5,13.2c0.5,4.4,0.6,8.9,0.9,13.4c0.7,9,0.6,18,0.5,26.9v3.3v0.8v0.4v0.1c0,0.2,0-0.3,0,0.5v0.2l-0.1,1.6
	c-0.2,2.2-0.1,4-0.5,6.6c-0.5,5-1.1,9.3-1.8,13.6c-2.7,17-5.9,31.5-6.9,43.1c-0.6,5.8-0.7,10.8-0.6,15c0.2,4.2,0.7,7.5,1.2,10.1
	c0.3,1.2,0.6,2.4,0.8,3.3c0.3,0.9,0.6,1.7,0.8,2.3c0.4,1.2,0.6,1.9,0.6,1.9l-10.3,28.4l-29.9-13.8c0,0-0.3-1.4-0.8-4.1
	c-0.3-1.3-0.6-3-0.9-4.9c-0.2-1.9-0.4-4.1-0.6-6.6c-0.3-4.9-0.3-10.8,0.3-17.2c0.7-6.3,1.8-13.3,3.5-20.3c3.3-14.1,8.6-28.8,13-43.6
	c1.1-3.7,2.1-7.4,2.9-10.7c0.5-1.5,0.8-4,1.2-5.9l0.3-1.6v-0.2c-0.1,0.8,0,0.2,0,0.3v-0.1l0.1-0.4l0.1-0.8l0.4-3
	c1.1-8.1,2.4-16.4,2.8-24.7c0.3-4.2,0.8-8.4,0.9-12.5c0.1-4.2,0.1-8.3,0.2-12.5c0-2.1,0.1-4.1,0.1-6.2c-0.1-2-0.2-4.1-0.3-6.1
	c-0.2-4.1-0.4-8.1-0.5-12c-0.5-7.9-1.6-15.4-2.4-22.6c-1.2-7.1-2.6-13.8-3.8-20c-1.4-6.1-3.2-11.4-4.5-16.4
	c-1.2-4.9-3.6-10.6-4.9-14.1c-2.8-6.9-3.7-11.1-3.7-11.1L1458.6,1215.1z"/>
<path class="st2" d="M1428.2,1154c0-0.1-0.4-1-0.6-2.8c-0.2-1.2-0.3-2.8-0.3-4.7c-1.3,6.6-2.9,20.4,4.6,29.4l-11.9,14.3l22.6,6.1
	c0.7-6.2,1.8-14.6,3.7-25.7C1438.5,1168.1,1431.6,1163.1,1428.2,1154z"/>
<path class="st24" d="M1417.8,1239.9c5.4,9.1,10.7,17.1,15.7,23.9c19.5,26.5,47.9,45,80.1,52.1c8.6,1.9,16.9,2.9,23.5,2l-16.3-11.7
	c-4.7-7.7-19.2-27.8-50.6-41.3c-39.5-17-26.9-24.2-38.9-35.5c-12-11.2-12-11.2-12-11.2s-33.8-25.3-59-13.9c0,0-6.4,2.8-12.8,9.3
	l-0.2,0.4C1347.3,1214,1392.1,1196.1,1417.8,1239.9z"/>
<path class="st2" d="M1482.5,1163.5l-2.6-11.7c-3-6.8-5.3-13.4-6.9-19.3l1.1-4l-2.6-8.1c4.4-1.3,9.9-5,3.2-9.7
	c-4.3-3-8.4-10.2-10-13.3c-0.5-2.2-0.8-4.5-0.9-6.8c-1.1-6.9-4.3-11.8-8-15.1c-0.3-0.3-0.5-0.5-0.8-0.7c-2.4-2-4.9-3.4-6.9-4.4
	c-0.1,0-0.2-0.1-0.3-0.2c-2.4-1-4-1.4-4-1.4l-18.9,8.8l-40,19.4l3.5,10.5l5.6,16.9l4.7,14.2l20.2-8.1l1.1-0.4l0.2,1.5l1.8,15.1
	l5.8,4.4l21.2,16l2.3-0.5l2.4-0.5l19.5,2.8c7.4,1.3,9-2.4,9.4-4.3C1482.5,1164,1482.5,1163.5,1482.5,1163.5z"/>
<path class="st25" d="M1426.5,1086.4c-0.4-2.1,0.1-4.3,1.4-6s3.3-2.8,5.5-2.9c12.3-0.8,29.5-5.7,24.7-27.9c0,0-6.7-22.2-26.2-11
	c0,0-7.8,7.4-20.6,0.5c-12.8-6.9-27.3-3.9-34.8,4.4c-6.1,6.8-6.8,12.2-6.8,13.9c0,1.3-0.2,2.7-0.7,4c-0.9,2.8-3,6.2-7.7,6.6
	c-7.2,0.6-21.7,11-15.6,31.9c1.2,4,3.2,7.6,6,10.7l0.8,0.8c3.4,3.7,7.3,6.9,11.5,9.5c2.4,1.5,5.1,4.8,5.1,11.8
	c0.1,21.1,19.5,26.7,19.5,26.7l5.1-6.2c5.3-6.4,5.1-15.7-0.4-22c-3-3.3-4.4-7.8-1.1-13.3c1.4-2.3,3.8-4,6.5-4.5
	c2.4-0.4,5.2-0.2,7.6,2.4c1.9,2.2,4.2,4.1,6.6,5.7l15.5,10.4l-3.5-19.8c-0.9-5-0.6-10,0.9-14.8
	C1426.8,1094.4,1427.4,1090.6,1426.5,1086.4z"/>
<path class="st25" d="M1474.1,1128.5c-0.9,4.6-4.4,4.9-5.6,5c-10.7,1-17.1,6.1-20.7,10.2c-1.3,1.5-3.2,2.3-5.2,2.2
	c-2-0.1-3.8-1.2-4.9-2.8c-1.4-2.1-2.5-4.5-3.1-7l-7.9-19.1l-7.7-18.6l-9.3,19.8c1.7,7.3,20.5,10.4,18.5,20.3c0,0,0,0,0,0.1
	c-1.2,5.8-0.9,10-0.6,12.6c0.3,1.8,0.6,2.7,0.6,2.8c4.3,11.6,14.4,16.6,24.9,18.4c4.9,0.8,9.8,0.9,14.3,0.7c0.6,1.3,1.6,2.6,3.1,3.7
	c8,6.2,17.1-0.8,17.1-0.8C1508,1159,1474.1,1128.5,1474.1,1128.5z"/>
<path class="st8" d="M1450.9,1104.4c3.8,8.8,9.4,14.8,12.4,13.5s2.4-9.5-1.5-18.3c-3.8-8.8-9.4-14.8-12.4-13.5
	C1446.5,1087.4,1447.1,1095.6,1450.9,1104.4z"/>
<path class="st8" d="M1416.7,1122.6c-1.1,0-2.2-0.7-2.6-1.8c-0.6-1.5,0.1-3.1,1.5-3.8l51.3-21.6c1.4-0.6,3.1,0.1,3.8,1.5
	c0.6,1.5-0.1,3.1-1.5,3.8l-51.3,21.6C1417.4,1122.5,1417,1122.6,1416.7,1122.6z"/>
<g>
	<path class="st8" d="M1780.3,1031.8c2,0.4,4.1-0.3,5.3-1.9c16.2-20.6,18.5-48.8,5.9-71.7c-9-16.5-24.7-28.3-43.1-32.3
		c-6.6-1.5-13.5-1.9-20.3-1.2c-0.7,0.1-1.4,0.3-2,0.6c-1.9,1-2.9,3-2.7,5.1c0.2,2.3,1.9,4.2,4.1,4.7l0,0c0.5,0.1,1.1,0.2,1.6,0.1
		c5.7-0.5,11.4-0.2,17,1c15.4,3.4,28.5,13.3,36.1,27.1c10.5,19.2,8.6,42.8-5,60.1c-1.8,2.3-1.4,5.6,0.9,7.4
		C1778.8,1031.3,1779.5,1031.6,1780.3,1031.8z"/>
	<path class="st8" d="M1755.2,1012.2c2,0.4,4.1-0.3,5.3-1.9c8.3-10.5,9.5-25,3.1-36.8c-4.6-8.5-12.7-14.5-22.1-16.6
		c-3.4-0.7-6.8-1-10.3-0.6c-0.7,0.1-1.4,0.3-2.1,0.6c-1.9,1-2.9,3-2.7,5.1c0.2,2.3,1.8,4.2,4.1,4.7l0,0c0.5,0.1,1.1,0.1,1.6,0.1
		c2.4-0.2,4.7-0.1,7,0.4c6.4,1.4,12,5.6,15.1,11.3c4.4,8.1,3.6,17.9-2.1,25.1c-1.8,2.3-1.4,5.6,0.9,7.4
		C1753.8,1011.6,1754.5,1012,1755.2,1012.2z"/>
	<path class="st8" d="M1804.6,1050.8c2,0.4,4.1-0.3,5.3-1.9c23.8-30.4,27.2-71.8,8.7-105.6c-13.3-24.3-36.5-41.7-63.6-47.7
		c-9.8-2.2-19.8-2.8-29.9-1.8c-0.7,0.1-1.4,0.3-2,0.6c-1.9,1-2.9,3-2.7,5.2c0.2,2.3,1.9,4.2,4.1,4.7c0.5,0.1,1.1,0.2,1.6,0.1
		c8.9-0.8,17.9-0.3,26.6,1.6c24.1,5.3,44.7,20.8,56.6,42.4c16.5,30.1,13.4,67-7.8,94c-1.8,2.3-1.4,5.6,0.9,7.4
		C1803.1,1050.3,1803.9,1050.7,1804.6,1050.8L1804.6,1050.8z"/>
</g>
<g class="st26">
	<path class="st8" d="M1518.3,2043.3h-3.1c-42.7,0-77.5-34.7-77.5-77.4c0-42.7,34.7-77.4,77.4-77.4c42.7,0,77.4,34.7,77.4,77.4
		c0,20-7.6,38.9-21.4,53.4c-1.2,1.3-3.2,1.3-4.5,0.1c-1.3-1.2-1.3-3.2-0.1-4.5c12.6-13.3,19.6-30.7,19.6-49
		c0-39.2-31.9-71.1-71.1-71.1s-71.1,31.9-71.1,71.1c0,38.1,30.2,69.4,68,71c0-9.9,0-27.6,0-28.7v-0.1c0-1.7,1.4-3.2,3.2-3.2
		c3.2,0,3.2,1.6,3.2,8.2V2043.3z"/>
	<g>
		<path class="st8" d="M1514.7,1957.8c-8.7,0-15.7-7-15.7-15.7s7-15.7,15.7-15.7s15.7,7,15.7,15.7
			C1530.4,1950.7,1523.4,1957.8,1514.7,1957.8z M1514.7,1932.7c-5.2,0-9.4,4.2-9.4,9.4s4.2,9.4,9.4,9.4c5.2,0,9.4-4.2,9.4-9.4
			S1519.9,1932.7,1514.7,1932.7z"/>
		<polygon class="st8" points="1521.6,1964.2 1515.1,1970.6 1508.7,1964.2 		"/>
		<path class="st8" d="M1515.1,1986c-1.7,0-3.2-1.4-3.2-3.2v-15.1c0-1.7,1.4-3.2,3.2-3.2c1.7,0,3.2,1.4,3.2,3.2v15.1
			C1518.3,1984.6,1516.9,1986,1515.1,1986z"/>
	</g>
	<path class="st8" d="M1533.3,1972.6c-1.2,0-2.4-0.7-2.9-1.9c-1.2-2.8-4-4.7-7-4.7h-16.5c-3.1,0-5.8,1.8-7,4.6
		c-0.7,1.6-2.6,2.3-4.1,1.7c-1.6-0.7-2.3-2.5-1.7-4.1c2.2-5.1,7.2-8.5,12.8-8.5h16.5c5.6,0,10.6,3.3,12.8,8.5
		c0.7,1.6-0.1,3.5-1.7,4.1C1534.1,1972.5,1533.7,1972.6,1533.3,1972.6z"/>
	<g>
		<path class="st8" d="M1479.9,1969.8c-8.7,0-15.7-7-15.7-15.7s7-15.7,15.7-15.7s15.7,7,15.7,15.7
			C1495.6,1962.7,1488.6,1969.8,1479.9,1969.8z M1479.9,1944.7c-5.2,0-9.4,4.2-9.4,9.4c0,5.2,4.2,9.4,9.4,9.4s9.4-4.2,9.4-9.4
			C1489.3,1948.9,1485.1,1944.7,1479.9,1944.7z"/>
		<path class="st8" d="M1524.8,2009.3h-19.4c-5.1,0-9.2-4.1-9.2-9.2v-14.3c0-4.2-3.4-7.6-7.7-7.6H1472c-4.2,0-7.6,3.4-7.6,7.6v9.2
			c0,1.7-1.4,3.2-3.2,3.2c-1.7,0-3.2-1.4-3.2-3.2v-9.2c0-7.7,6.3-14,14-14h16.5c7.7,0,14,6.3,14,14v14.3c0,1.6,1.3,2.9,2.9,2.9h19.4
			c1.6,0,2.9-1.3,2.9-2.9v-14.3c0-7.7,6.3-14,14-14h16.5c7.7,0,14,6.3,14,14v9.2c0,1.7-1.4,3.2-3.2,3.2c-1.7,0-3.2-1.4-3.2-3.2v-9.2
			c0-4.2-3.4-7.6-7.7-7.6h-16.5c-4.2,0-7.6,3.4-7.6,7.6v14.3C1534,2005.1,1529.9,2009.3,1524.8,2009.3z"/>
		<polygon class="st8" points="1486.8,1976.2 1480.3,1982.6 1473.8,1976.2 		"/>
		<path class="st8" d="M1480.3,1998c-1.7,0-3.2-1.4-3.2-3.2v-15.1c0-1.7,1.4-3.2,3.2-3.2c1.7,0,3.2,1.4,3.2,3.2v15.1
			C1483.5,1996.6,1482,1998,1480.3,1998z"/>
	</g>
	<g>
		<path class="st8" d="M1549.5,1969.8c-8.7,0-15.7-7-15.7-15.7s7-15.7,15.7-15.7s15.7,7,15.7,15.7
			C1565.2,1962.7,1558.2,1969.8,1549.5,1969.8z M1549.5,1944.7c-5.2,0-9.4,4.2-9.4,9.4c0,5.2,4.2,9.4,9.4,9.4s9.4-4.2,9.4-9.4
			C1558.9,1948.9,1554.7,1944.7,1549.5,1944.7z"/>
		<polygon class="st8" points="1556.4,1976.2 1549.9,1982.6 1543.5,1976.2 		"/>
		<path class="st8" d="M1549.9,1998c-1.7,0-3.2-1.4-3.2-3.2v-15.1c0-1.7,1.4-3.2,3.2-3.2c1.7,0,3.2,1.4,3.2,3.2v15.1
			C1553.1,1996.6,1551.7,1998,1549.9,1998z"/>
	</g>
</g>
<g>
	<g>
		<rect x="1147.8" y="2890.6" class="st27" width="427.3" height="507.7"/>
		<rect x="932.5" y="2890.6" class="st28" width="215.3" height="507.7"/>
		<rect x="1147.8" y="2890.6" class="st27" width="427.3" height="81.6"/>
		<rect x="932.5" y="2890.6" class="st28" width="215.3" height="81.6"/>
	</g>
	<g>
		<g>
			<path class="st29" d="M1392,3398.3h-59v-507.9h58.9L1392,3398.3L1392,3398.3z"/>
		</g>
		<path class="st30" d="M1227.6,2890.4h58.9l36.1-82.5c9.5-21.4,30.6-35.2,54-35.3h-58.9c-23.4,0-44.6,13.8-54,35.3L1227.6,2890.4z"
			/>
		<g>
			<path class="st29" d="M1323.3,2890.4h58.9c32.5,0,58.9-26.4,58.9-58.9s-26.4-58.9-58.9-58.9h-5.7c-9.2,0-18.3,2.2-26.6,6.4
				c19.8,10,32.2,30.3,32.2,52.5C1382.2,2864,1355.9,2890.4,1323.3,2890.4z"/>
			<path class="st31" d="M1286.5,2890.4h-58.9l-36.1-82.5c-9.5-21.4-30.6-35.2-54-35.3h58.9c23.4,0,44.6,13.8,54,35.3L1286.5,2890.4
				z"/>
			<path class="st29" d="M1190.8,2890.4h-58.9c-32.5,0-58.9-26.4-58.9-58.9s26.4-58.9,58.9-58.9h5.7c9.2,0,18.3,2.2,26.6,6.4
				c-19.8,10-32.2,30.3-32.2,52.5C1131.9,2864,1158.2,2890.4,1190.8,2890.4z"/>
		</g>
		<path class="st29" d="M1392,2972.3h-59v-81.9h58.9L1392,2972.3L1392,2972.3z"/>
		<g>
			<path class="st31" d="M1066.4,3398.3h-58.9v-507.9h58.9V3398.3z"/>
		</g>
		<path class="st32" d="M1066.4,2972.3h-58.9v-81.9h58.9V2972.3z"/>
		<g>
			<g>
				<rect x="1588.2" y="3067.1" class="st6" width="278.8" height="331.2"/>
				<rect x="1447.7" y="3067.1" class="st33" width="140.5" height="331.2"/>
				<rect x="1588.2" y="3067.1" class="st34" width="278.8" height="53.2"/>
				<rect x="1447.7" y="3067.1" class="st35" width="140.5" height="53.2"/>
			</g>
			<g>
				<path class="st8" d="M1747.5,3398.3h-38.4v-331.4h38.4V3398.3z"/>
			</g>
			<path class="st36" d="M1640.3,3066.9h38.4l23.5-53.8c6.2-13.9,20-22.9,35.2-23H1699c-15.3,0-29.1,9-35.2,23L1640.3,3066.9z"/>
			<g>
				<path class="st36" d="M1702.7,3066.9h38.4c21.2,0,38.4-17.2,38.4-38.4s-17.2-38.4-38.4-38.4h-3.7c-6,0-12,1.5-17.3,4.2
					c12.9,6.5,21,19.8,21,34.2C1741.2,3049.7,1724,3066.9,1702.7,3066.9z"/>
				<path class="st8" d="M1678.7,3066.9h-38.4l-23.5-53.8c-6.2-13.9-20-22.9-35.2-23h38.4c15.3,0,29.1,9,35.2,23L1678.7,3066.9z"/>
				<path class="st36" d="M1616.3,3066.9h-38.4c-21.2,0-38.4-17.2-38.4-38.4s17.2-38.4,38.4-38.4h3.7c6,0,12,1.5,17.3,4.2
					c-12.9,6.5-21,19.8-21,34.2C1577.8,3049.7,1595,3066.9,1616.3,3066.9z"/>
			</g>
			<path class="st37" d="M1747.5,3120.3h-38.4v-53.4h38.4V3120.3z"/>
			<g>
				<path class="st8" d="M1535.1,3398.3h-38.4v-331.4h38.4V3398.3z"/>
			</g>
			<path class="st35" d="M1535.1,3120.3h-38.4v-53.4h38.4V3120.3z"/>
		</g>
	</g>
</g>
<linearGradient id="SVGID_5_" gradientUnits="userSpaceOnUse" x1="5435.3271" y1="1744.9481" x2="5382.6572" y2="1862.6803" gradientTransform="matrix(1 0 0 -1 -4613.2373 4218)">
	<stop  offset="0" style="stop-color:#3B1C55"/>
	<stop  offset="1" style="stop-color:#172F57"/>
</linearGradient>
<path class="st38" d="M851.6,2467.3c-5.5,8.3-11.2,15.1-17,20.6c-23.2-8.8-45-27.9-45-27.9c11.1-9.1,17.9-22.4,18.6-36.8
	c0.8-14.3-4.6-28.3-14.6-38.5c-9.2-9.3-26-31.7-27.8-72.2c-2.2-48.3-61.3-41.3-78.1-38.4c13.7-10.2,25.7-10.5,25.7-10.5
	c23.3-3.4,46.1,2.3,59.8,22.1c15.3,22,7.1,44.4,13.7,68.6c5,18.1,20.9,33,34.4,44.8C869.8,2441.4,851.6,2467.3,851.6,2467.3z"/>
<path class="st5" d="M701,2397.8c0,0,22.4,18.1,0.9,30.2c0,0-0.7,10.3,3.9,18.7c4.8,8.7,15.6,12.1,24.5,7.7
	c9.9-4.8,28.9-16.7,35.5-39.3c0,0-16.4-13-18.1-28.5v-36.3l-46.8,47L701,2397.8z"/>
<path class="st6" d="M806.1,2428c0,0-1.9,1.4-4.8,4.1c-23.6,22.8-23.7,57.3-7.9,86c24.1,43.9,73.2,102.5,75,108.9
	c0,0,6-23.1,32.5-20.8c0,0-17.7-44.7-33.8-83.8C851,2483.3,836.1,2437.8,806.1,2428z"/>
<path class="st5" d="M742.8,2362.4l-5.6-1.5l-36.3,36.4l0.2,0.5c0,0,22.5,18.1,0.9,30.2c0,0-0.7,10.3,3.9,18.7
	c3.4,6.1,9.6,9.5,16.1,9.6c-4.2-2.4-7.3-6.5-8.2-11.3c-0.3-1.4,0.3-4.7,1.2-9c3.4-15.1,9.6-29.5,18.4-42.2
	C742.6,2380.5,742.8,2362.4,742.8,2362.4z"/>
<path class="st5" d="M745.7,2364.6c-13.8,26.5-35.7,38-35.7,38c-41.2,20-48.9-64.5-38.9-92.4c0,0,5.2-24.2,42.3-5.2
	c0,0,26.8,13.8,30.2,32.8L745.7,2364.6z"/>
<path class="st8" d="M685.9,2352.5c0,9.6-4.9,17.5-11,17.5s-11-7.8-11-17.5c0-9.6,4.9-17.5,11-17.5S685.9,2342.8,685.9,2352.5z"/>
<path class="st8" d="M713.5,2352.5c0,9.6-4.9,17.5-11,17.5s-11-7.8-11-17.5c0-9.6,4.9-17.5,11-17.5S713.5,2342.8,713.5,2352.5z"/>
<path class="st5" d="M741.1,2341.3c0,0,14.4-11.2,16.6-1.7c0,0,6.8,17.3-14.4,25.9L741.1,2341.3z"/>
<linearGradient id="SVGID_6_" gradientUnits="userSpaceOnUse" x1="5337.2871" y1="1756.7163" x2="5337.2871" y2="1916.2253" gradientTransform="matrix(1 0 0 -1 -4613.2373 4218)">
	<stop  offset="0" style="stop-color:#3B1C55"/>
	<stop  offset="1" style="stop-color:#172F57"/>
</linearGradient>
<path class="st39" d="M707.8,2301.9c0,0,8.8,5,12.5,18.8c3.8,13.8,20,7.5,20,7.5l-3.1-21.3l-24.4-8.8L707.8,2301.9z"/>
<rect x="673.8" y="2351.3" class="st8" width="30.4" height="2.5"/>
<path class="st8" d="M710.6,2352.9c-0.5,0-1-0.3-1.2-0.8c-0.2-0.6,0.1-1.4,0.7-1.6l30.1-11.7c0.6-0.2,1.4,0.1,1.6,0.7
	c0.2,0.6-0.1,1.4-0.7,1.6l-30.1,11.7C710.9,2352.9,710.8,2352.9,710.6,2352.9z"/>
<linearGradient id="SVGID_7_" gradientUnits="userSpaceOnUse" x1="5207.2661" y1="1768.4354" x2="5207.2661" y2="1927.942" gradientTransform="matrix(0.994 0.1094 0.1094 -0.994 -4643.4478 3651.196)">
	<stop  offset="0" style="stop-color:#3B1C55"/>
	<stop  offset="1" style="stop-color:#172F57"/>
</linearGradient>
<path class="st40" d="M737.1,2301.2c0,0-8.8,41.9,7.5,58.4c0,0,0-19,0-37.7L737.1,2301.2z"/>
<g>
	<polygon class="st18" points="2524.6,914.9 2524.6,967.6 2678.8,864.5 	"/>
	
		<linearGradient id="SVGID_8_" gradientUnits="userSpaceOnUse" x1="23636.9297" y1="3381.5811" x2="23450.6504" y2="3293.2185" gradientTransform="matrix(1 0 0 -1 -20917.8008 4218)">
		<stop  offset="0" style="stop-color:#FCE2E9"/>
		<stop  offset="1" style="stop-color:#FFFFFF"/>
	</linearGradient>
	<polygon class="st41" points="2482.1,882.2 2524.6,914.9 2678.8,864.5 2538.6,930 2583.1,967.6 2696.1,857.9 	"/>
	<polygon class="st20" points="2538.6,930 2524.6,967.6 2557.6,946 	"/>
</g>
<path class="st8" d="M2067.6,2179.5c-3.5-0.1-6.2-3-6.1-6.5l0,0c0.1-3.5,3-6.2,6.5-6.1l0,0c3.5,0.1,6.2,3,6.1,6.4l0,0
	c-0.1,3.4-2.9,6.2-6.3,6.2l0,0C2067.7,2179.5,2067.7,2179.5,2067.6,2179.5z M2093,2173.2c-0.1-3.5,2.6-6.4,6.1-6.6l0,0
	c3.5-0.1,6.4,2.6,6.5,6.1l0,0c0.2,3.5-2.6,6.4-6.1,6.5l0,0c-0.1,0-0.2,0-0.2,0l0,0C2095.9,2179.3,2093.1,2176.6,2093,2173.2z
	 M2035.8,2177.8L2035.8,2177.8L2035.8,2177.8c-3.5-0.3-6.1-3.3-5.8-6.8l0,0c0.3-3.5,3.3-6.1,6.8-5.8l0,0c3.5,0.3,6.1,3.3,5.8,6.8
	l0,0c-0.3,3.3-3,5.8-6.3,5.8l0,0C2036.1,2177.8,2036,2177.8,2035.8,2177.8z M2124.4,2171.4c-0.3-3.5,2.2-6.6,5.6-6.9l0,0
	c3.4-0.3,6.6,2.2,6.9,5.6l0,0c0.3,3.5-2.1,6.6-5.6,6.9l0,0c-0.2,0-0.4,0-0.7,0l0,0C2127.5,2177,2124.8,2174.6,2124.4,2171.4z
	 M2004.1,2174.3c-3.4-0.5-5.9-3.7-5.4-7.1l0,0c0.5-3.5,3.6-5.9,7.1-5.4l0,0c3.4,0.5,5.9,3.7,5.4,7.1l0,0c-0.4,3.2-3.2,5.5-6.2,5.5
	l0,0C2004.7,2174.3,2004.4,2174.3,2004.1,2174.3z M2155.7,2167.5c-0.6-3.4,1.7-6.7,5.1-7.3l0,0c3.4-0.6,6.7,1.7,7.3,5.1l0,0
	c0.6,3.4-1.7,6.7-5.1,7.3l0,0c-0.4,0.1-0.7,0.1-1.1,0.1l0,0C2158.9,2172.8,2156.2,2170.6,2155.7,2167.5z M1972.7,2169.1
	c-3.4-0.7-5.7-4-5-7.4l0,0c0.6-3.4,3.9-5.7,7.3-5l0,0c3.4,0.6,5.7,3.9,5,7.4l0,0c-0.6,3-3.2,5.1-6.2,5.1l0,0
	C1973.5,2169.2,1973.1,2169.2,1972.7,2169.1z M2186.6,2161.5c-0.8-3.4,1.2-6.8,4.6-7.6l0,0c3.4-0.8,6.8,1.2,7.6,4.6l0,0
	c0.8,3.4-1.2,6.8-4.6,7.6l0,0c-0.5,0.1-1,0.2-1.5,0.2l0,0C2189.9,2166.3,2187.3,2164.4,2186.6,2161.5z M1941.6,2162.4L1941.6,2162.4
	L1941.6,2162.4c-3.4-0.8-5.5-4.2-4.7-7.6l0,0c0.8-3.4,4.2-5.5,7.6-4.7l0,0c3.4,0.8,5.5,4.2,4.7,7.6l0,0c-0.7,2.9-3.3,4.8-6.1,4.8
	l0,0C1942.6,2162.6,1942.1,2162.5,1941.6,2162.4z M2217,2153.3c-1.1-3.3,0.7-6.9,4-7.9l0,0c3.3-1.1,6.9,0.7,7.9,4l0,0
	c1.1,3.3-0.7,6.9-4,7.9l0,0l0,0l0,0c-0.6,0.2-1.3,0.3-2,0.3l0,0C2220.3,2157.7,2217.8,2156,2217,2153.3z M1910.9,2154.3
	L1910.9,2154.3L1910.9,2154.3c-3.3-0.9-5.3-4.4-4.3-7.8l0,0c1-3.3,4.5-5.3,7.8-4.3l0,0c3.3,0.9,5.3,4.4,4.3,7.8l0,0
	c-0.8,2.8-3.3,4.6-6.1,4.6l0,0C1912,2154.6,1911.5,2154.5,1910.9,2154.3z M2246.7,2142.9c-1.3-3.2,0.2-6.9,3.4-8.3l0,0
	c3.2-1.3,6.9,0.2,8.2,3.4l0,0c1.3,3.2-0.2,6.9-3.4,8.2l0,0c-0.8,0.3-1.6,0.5-2.4,0.5l0,0C2250.1,2146.8,2247.7,2145.3,2246.7,2142.9
	z M1880.5,2144.9c-3.3-1.1-5.1-4.7-4-7.9l0,0c1.1-3.3,4.7-5.1,8-4l0,0c3.3,1.1,5.1,4.7,4,8l0,0c-0.9,2.6-3.3,4.3-6,4.3l0,0
	C1881.9,2145.2,1881.2,2145.1,1880.5,2144.9z M1851.1,2134.7c-3.4-0.9-5.4-4.3-4.5-7.7l0,0c0.9-3.4,4.3-5.4,7.7-4.5l0,0
	c3.4,0.9,5.4,4.3,4.5,7.7l0,0c-0.7,2.8-3.3,4.7-6.1,4.7l0,0C1852.2,2134.9,1851.7,2134.9,1851.1,2134.7z M2275.5,2130.2
	c-1.6-3.1-0.3-6.9,2.8-8.4l0,0c3.1-1.6,6.9-0.3,8.5,2.8l0,0c1.6,3.1,0.3,6.9-2.8,8.5l0,0c-0.9,0.4-1.9,0.7-2.8,0.7l0,0
	C2278.9,2133.6,2276.6,2132.4,2275.5,2130.2z M1821.1,2129.4c-3.5-0.3-6-3.4-5.7-6.9l0,0c0.3-3.5,3.4-6,6.9-5.7l0,0
	c3.5,0.3,6,3.4,5.6,6.9l0,0c-0.3,3.2-3.1,5.7-6.3,5.7l0,0C1821.5,2129.4,1821.3,2129.4,1821.1,2129.4z M1784,2122.9
	c-0.2-3.5,2.4-6.5,5.9-6.7l0,0c3.5-0.2,6.5,2.4,6.7,5.9l0,0c0.2,3.5-2.4,6.5-5.9,6.7l0,0c-0.1,0-0.3,0-0.4,0l0,0
	C1787,2128.8,1784.2,2126.2,1784,2122.9z M2303.3,2115.3c-1.8-3-0.9-6.8,2.1-8.7l0,0c3-1.8,6.9-0.8,8.7,2.1l0,0
	c1.8,3,0.9,6.9-2.1,8.7l0,0c-1,0.6-2.1,0.9-3.3,0.9l0,0C2306.6,2118.4,2304.5,2117.3,2303.3,2115.3z M2329.8,2098.4
	c-2-2.8-1.4-6.8,1.4-8.8l0,0c2.8-2,6.8-1.4,8.8,1.4l0,0c2,2.8,1.4,6.8-1.4,8.8l0,0c-1.1,0.8-2.4,1.2-3.7,1.2l0,0
	C2333,2101,2331.1,2100.1,2329.8,2098.4z M2355,2079.4c-2.2-2.7-1.9-6.7,0.8-8.9l0,0c2.6-2.2,6.6-1.9,8.9,0.8l0,0
	c2.2,2.6,1.9,6.6-0.8,8.9l0,0c-1.2,1-2.6,1.5-4.1,1.5l0,0C2358,2081.6,2356.2,2080.9,2355,2079.4z M2378.6,2058.6
	c-2.4-2.5-2.4-6.5,0.1-8.9l0,0c2.5-2.4,6.5-2.4,8.9,0.1l0,0c2.4,2.5,2.4,6.5-0.1,8.9l0,0c-1.2,1.2-2.8,1.8-4.4,1.8l0,0
	C2381.4,2060.5,2379.8,2059.8,2378.6,2058.6z M2400.5,2036c-2.6-2.3-2.9-6.3-0.6-8.9l0,0c2.3-2.6,6.3-2.9,8.9-0.6l0,0
	c2.6,2.3,2.9,6.3,0.6,8.9l0,0c-1.2,1.4-3,2.1-4.7,2.1l0,0C2403.2,2037.6,2401.7,2037,2400.5,2036z M2420.7,2011.9
	c-2.8-2.1-3.3-6.1-1.2-8.8l0,0c2.1-2.8,6.1-3.3,8.8-1.2l0,0c2.8,2.1,3.3,6.1,1.3,8.8l0,0c-1.3,1.6-3.2,2.5-5,2.5l0,0
	C2423.2,2013.2,2421.9,2012.7,2420.7,2011.9z M2439.2,1986.3c-2.9-1.9-3.8-5.8-1.9-8.7l0,0c1.9-2.9,5.8-3.8,8.7-1.9l0,0
	c2.9,1.9,3.8,5.8,1.9,8.7l0,0l0,0l0,0c-1.2,1.9-3.2,2.9-5.3,2.9l0,0C2441.4,1987.3,2440.2,1987,2439.2,1986.3z M2455.7,1959.5
	c-3.1-1.7-4.2-5.5-2.5-8.5l0,0c1.7-3.1,5.5-4.2,8.6-2.5l0,0c3,1.7,4.2,5.5,2.5,8.6l0,0c-1.2,2.1-3.3,3.2-5.5,3.2l0,0
	C2457.7,1960.3,2456.6,1960,2455.7,1959.5z M2470.3,1931.6c-3.2-1.5-4.5-5.2-3.1-8.4l0,0c1.4-3.2,5.2-4.5,8.4-3.1l0,0
	c3.2,1.5,4.5,5.2,3.1,8.4l0,0l0,0l0,0c-1.1,2.3-3.4,3.7-5.7,3.7l0,0C2472,1932.2,2471.1,1932,2470.3,1931.6z M2482.9,1902.7
	c-3.2-1.2-4.9-4.9-3.6-8.1l0,0c1.2-3.2,4.9-4.9,8.1-3.6l0,0c3.2,1.2,4.9,4.9,3.6,8.1l0,0c-0.9,2.5-3.3,4.1-5.9,4.1l0,0
	C2484.4,1903.1,2483.7,1903,2482.9,1902.7z M2493.5,1873c-3.3-1-5.2-4.5-4.2-7.9l0,0c1-3.3,4.5-5.2,7.8-4.2l0,0
	c3.3,1,5.2,4.5,4.2,7.8l0,0l0,0l0,0c-0.8,2.7-3.3,4.5-6,4.5l0,0C2494.8,1873.3,2494.2,1873.2,2493.5,1873z M2502.2,1842.7
	c-3.4-0.8-5.5-4.2-4.7-7.6l0,0c0.8-3.4,4.2-5.5,7.6-4.7l0,0c3.4,0.8,5.5,4.2,4.7,7.6l0,0l0,0l0,0c-0.7,2.9-3.3,4.9-6.1,4.9l0,0
	C2503.1,1842.9,2502.6,1842.8,2502.2,1842.7z M2508.7,1811.9c-3.4-0.6-5.8-3.8-5.2-7.2l0,0c0.6-3.4,3.8-5.8,7.2-5.2l0,0
	c3.4,0.6,5.8,3.8,5.2,7.2l0,0c-0.5,3.1-3.2,5.3-6.2,5.3l0,0C2509.4,1812,2509,1811.9,2508.7,1811.9z M2513.2,1780.7
	c-3.5-0.3-6-3.4-5.7-6.9l0,0c0.3-3.5,3.4-6,6.9-5.7l0,0c3.5,0.3,6,3.4,5.7,6.9l0,0c-0.3,3.3-3.1,5.7-6.3,5.7l0,0
	C2513.5,1780.7,2513.4,1780.7,2513.2,1780.7z M2515.5,1749.3c-3.5-0.1-6.2-3-6.1-6.5l0,0c0.1-3.5,3-6.2,6.5-6.1l0,0
	c3.5,0.1,6.2,3,6.1,6.5l0,0c-0.1,3.4-2.9,6.1-6.3,6.1l0,0C2515.6,1749.3,2515.6,1749.3,2515.5,1749.3z M2509.1,1711.7
	c-0.1-3.5,2.6-6.4,6.1-6.6l0,0c3.5-0.2,6.4,2.6,6.6,6l0,0l0,0l0,0c0.2,3.5-2.6,6.4-6.1,6.6l0,0c-0.1,0-0.2,0-0.3,0l0,0
	C2512.1,1717.7,2509.3,1715.1,2509.1,1711.7z M2506.8,1680.7c-0.4-3.5,2.1-6.6,5.5-7l0,0c3.5-0.4,6.6,2.1,7,5.5l0,0
	c0.4,3.5-2.1,6.6-5.5,7l0,0c-0.2,0-0.5,0.1-0.7,0.1l0,0C2509.9,1686.3,2507.1,1683.9,2506.8,1680.7z M2502.2,1650
	c-0.6-3.4,1.6-6.7,5.1-7.3l0,0c3.4-0.6,6.7,1.6,7.3,5l0,0c0.6,3.4-1.6,6.7-5.1,7.3l0,0c-0.4,0.1-0.8,0.1-1.1,0.1l0,0
	C2505.4,1655.1,2502.8,1653,2502.2,1650z M2495.5,1619.7L2495.5,1619.7c-0.9-3.4,1.1-6.8,4.5-7.7l0,0c3.4-0.9,6.8,1.1,7.7,4.5l0,0
	c0.9,3.4-1.1,6.8-4.5,7.7l0,0c-0.5,0.1-1.1,0.2-1.6,0.2l0,0C2498.8,1624.4,2496.2,1622.5,2495.5,1619.7z M2486.6,1589.9
	c-1.1-3.3,0.6-6.9,3.9-8l0,0c3.3-1.1,6.9,0.7,8,3.9l0,0c1.1,3.3-0.6,6.9-3.9,8l0,0c-0.7,0.2-1.4,0.3-2,0.3l0,0
	C2490,1594.2,2487.5,1592.5,2486.6,1589.9z M2475.5,1560.9c-1.4-3.2,0.1-6.9,3.3-8.3l0,0c3.2-1.4,6.9,0.2,8.3,3.3l0,0
	c1.4,3.2-0.1,6.9-3.3,8.3l0,0c-0.8,0.3-1.6,0.5-2.5,0.5l0,0C2478.9,1564.8,2476.5,1563.3,2475.5,1560.9z M2462.3,1532.9
	c-1.6-3.1-0.4-6.9,2.7-8.5l0,0c3.1-1.6,6.9-0.4,8.5,2.7l0,0c1.6,3.1,0.4,6.9-2.7,8.5l0,0c-0.9,0.5-1.9,0.7-2.9,0.7l0,0
	C2465.6,1536.3,2463.4,1535,2462.3,1532.9z M2447,1505.9c-1.9-3-0.9-6.8,2-8.7l0,0c3-1.8,6.8-0.9,8.7,2l0,0c1.9,3,0.9,6.8-2,8.7l0,0
	c-1,0.6-2.2,0.9-3.3,0.9l0,0C2450.2,1508.9,2448.2,1507.8,2447,1505.9z M2429.6,1480.2c-2.1-2.8-1.5-6.7,1.4-8.8l0,0
	c2.8-2.1,6.7-1.5,8.8,1.4l0,0c2,2.8,1.4,6.7-1.4,8.8l0,0c-1.1,0.8-2.4,1.2-3.7,1.2l0,0C2432.7,1482.7,2430.8,1481.9,2429.6,1480.2z
	 M2410.3,1455.5c-2.2-2.7-1.7-6.7,1-8.9l0,0c2.7-2.1,6.7-1.7,8.9,1.1l0,0c2.1,2.7,1.7,6.7-1.1,8.8l0,0c-1.1,0.9-2.5,1.4-3.9,1.4l0,0
	C2413.4,1457.9,2411.6,1457.1,2410.3,1455.5z M2391.4,1429.8c-2-2.9-1.3-6.8,1.6-8.8l0,0c2.9-2,6.8-1.3,8.8,1.6l0,0l0,0l0,0
	c2,2.9,1.3,6.8-1.6,8.8l0,0c-1.1,0.8-2.4,1.1-3.6,1.1l0,0C2394.6,1432.6,2392.6,1431.6,2391.4,1429.8z M2374.1,1403
	c-1.8-3-0.8-6.9,2.2-8.6l0,0c3-1.8,6.9-0.8,8.7,2.2l0,0c1.8,3,0.8,6.9-2.2,8.6l0,0c-1,0.6-2.1,0.9-3.2,0.9l0,0
	C2377.4,1406.1,2375.2,1405,2374.1,1403z M2358.8,1374.9c-1.5-3.1-0.3-6.9,2.9-8.4l0,0c3.1-1.5,6.9-0.3,8.4,2.9l0,0
	c1.5,3.1,0.3,6.9-2.9,8.4l0,0c-0.9,0.4-1.8,0.6-2.8,0.6l0,0C2362.1,1378.4,2359.9,1377.1,2358.8,1374.9z M2345.9,1345.5
	c-1.2-3.2,0.4-6.9,3.7-8.2l0,0c3.2-1.2,6.9,0.4,8.1,3.6l0,0c1.2,3.3-0.4,6.9-3.6,8.2l0,0c-0.8,0.3-1.5,0.4-2.3,0.4l0,0
	C2349.3,1349.5,2346.9,1348,2345.9,1345.5z M2335.9,1314.9c-0.9-3.4,1.1-6.8,4.4-7.7l0,0c3.4-0.9,6.8,1.1,7.7,4.4l0,0
	c0.9,3.4-1.1,6.8-4.4,7.7l0,0c-0.5,0.2-1.1,0.2-1.6,0.2l0,0C2339.3,1319.6,2336.7,1317.7,2335.9,1314.9z M2329.4,1283.4
	c-0.5-3.4,1.9-6.7,5.3-7.2l0,0c3.5-0.5,6.7,1.9,7.2,5.3l0,0l0,0l0,0c0.5,3.4-1.9,6.6-5.3,7.2l0,0c-0.3,0-0.6,0.1-0.9,0.1l0,0
	C2332.5,1288.8,2329.8,1286.5,2329.4,1283.4z M2326.6,1251.2L2326.6,1251.2c-0.1-3.5,2.6-6.4,6.1-6.5l0,0c3.5-0.1,6.4,2.7,6.4,6.2
	l0,0c0.1,3.5-2.7,6.4-6.1,6.4l0,0c-0.1,0-0.1,0-0.2,0l0,0C2329.5,1257.4,2326.7,1254.7,2326.6,1251.2z M2333.5,1225.9
	c-3.5-0.3-6-3.5-5.6-6.9l0,0c0.4-3.4,3.5-6,6.9-5.6l0,0c3.5,0.4,6,3.5,5.6,6.9l0,0c-0.3,3.2-3.1,5.6-6.3,5.6l0,0
	C2334,1226,2333.8,1225.9,2333.5,1225.9z M2338.1,1194.8c-3.4-0.8-5.5-4.2-4.7-7.6l0,0c0.8-3.4,4.2-5.5,7.6-4.7l0,0
	c3.4,0.8,5.5,4.2,4.7,7.6l0,0c-0.7,2.9-3.3,4.9-6.1,4.9l0,0C2339.1,1194.9,2338.6,1194.9,2338.1,1194.8z M2346.6,1164.4
	c-3.3-1.2-4.9-4.9-3.7-8.1l0,0c1.2-3.3,4.9-4.9,8.1-3.7l0,0c3.2,1.2,4.9,4.9,3.7,8.1l0,0c-0.9,2.6-3.3,4.1-5.9,4.1l0,0
	C2348,1164.8,2347.3,1164.7,2346.6,1164.4z M2358.6,1135.3c-3.1-1.6-4.3-5.4-2.7-8.5l0,0c1.6-3.1,5.4-4.3,8.5-2.8l0,0
	c3.1,1.6,4.3,5.4,2.7,8.5l0,0c-1.1,2.2-3.3,3.5-5.6,3.5l0,0C2360.5,1136,2359.5,1135.8,2358.6,1135.3z M2373.7,1107.7
	c-2.9-1.9-3.8-5.8-1.9-8.7l0,0c1.9-2.9,5.8-3.8,8.7-1.9l0,0c2.9,1.9,3.8,5.8,1.9,8.7l0,0c-1.2,1.9-3.2,2.9-5.3,2.9l0,0
	C2376,1108.7,2374.8,1108.4,2373.7,1107.7z M2391.5,1081.7c-2.7-2.1-3.2-6.1-1.1-8.9l0,0c2.1-2.7,6.1-3.2,8.9-1.1l0,0
	c2.7,2.1,3.2,6.1,1.1,8.9l0,0c-1.3,1.6-3.1,2.4-5,2.4l0,0C2394.1,1083,2392.7,1082.6,2391.5,1081.7z M2411.6,1057.3
	c-2.6-2.3-2.7-6.3-0.3-8.9l0,0c2.3-2.6,6.3-2.7,8.9-0.4l0,0c2.6,2.4,2.7,6.3,0.4,8.9l0,0c-1.3,1.4-3,2-4.6,2l0,0
	C2414.3,1058.9,2412.8,1058.4,2411.6,1057.3z M2433.5,1034.6c-2.4-2.6-2.3-6.5,0.3-8.9l0,0c2.6-2.4,6.5-2.3,8.9,0.3l0,0
	c2.4,2.6,2.2,6.5-0.3,8.9l0,0l0,0l0,0c-1.2,1.1-2.8,1.7-4.3,1.7l0,0C2436.4,1036.6,2434.7,1035.9,2433.5,1034.6z M2456.9,1013.5
	c-2.2-2.7-1.8-6.6,0.9-8.9l0,0c2.7-2.2,6.7-1.8,8.9,0.9l0,0c2.2,2.7,1.8,6.7-0.9,8.9l0,0l0,0l0,0c-1.2,0.9-2.6,1.4-4,1.4l0,0
	C2460,1015.8,2458.2,1015,2456.9,1013.5z M2481.8,994c-2-2.8-1.3-6.8,1.5-8.8l0,0c2.8-2,6.8-1.4,8.8,1.5l0,0c2,2.8,1.4,6.8-1.5,8.8
	l0,0l0,0l0,0c-1.1,0.8-2.4,1.2-3.6,1.2l0,0C2485,996.7,2483,995.8,2481.8,994z M2508,976.2c-1.7-3-0.6-6.9,2.5-8.6l0,0
	c3-1.7,6.9-0.6,8.6,2.5l0,0c1.7,3.1,0.6,6.9-2.5,8.6l0,0c-1,0.5-2,0.8-3.1,0.8l0,0C2511.3,979.5,2509.2,978.3,2508,976.2z"/>
<g>
	<path class="st8" d="M1725.6,993.9c21.4,37.9,33.2,71.8,26.5,75.5c-6.7,3.8-29.5-23.9-50.9-61.8c-21.4-37.9-33.2-71.8-26.5-75.5
		C1681.5,928.3,1704.2,956,1725.6,993.9z"/>
	
		<linearGradient id="SVGID_9_" gradientUnits="userSpaceOnUse" x1="1704.821" y1="3211.7668" x2="1722.6014" y2="3223.0276" gradientTransform="matrix(1 0 0 -1 0 4218)">
		<stop  offset="0" style="stop-color:#FACADB"/>
		<stop  offset="1" style="stop-color:#FFFFFF"/>
	</linearGradient>
	<path class="st42" d="M1751,1065.9c-0.1,0.3-0.2,0.5-0.5,0.7c-0.3,0.1-0.6,0.2-0.9,0.1c-6.4-2.3-25.1-23.6-45.8-60.4
		c-22-39-29.4-64.8-28-70.6c0.1-0.3,0.3-0.5,0.5-0.7c0.3-0.1,0.6-0.2,0.8-0.1c6.2,2.3,25,23.6,45.8,60.6
		C1744.8,1034.1,1752.3,1059.8,1751,1065.9z"/>
</g>
<path class="st43" d="M857.3,2816.6c0,0,29.3-62.2,10.4-107.1l-21.6-40.5c-0.1,0.1-0.2,0.2-0.2,0.3c-2.2,2.3-4.7,4.2-7.1,5.7
	c-4.2,2.6-9.1,4.2-14,4.5c-6.2,0.5-11.7,0.6-16.5,0.4c13.6,26.7,34.7,83.8,7.7,144.1c-35.7,79.6-97.7,201.3-29.5,362.6
	c33.5-18.8,56.4-54.2,43.6-93c0,0-7.7-27.1-8-27.9c-3.7-11.1-25.6-76.6-14-132.4L857.3,2816.6z"/>
<path class="st3" d="M570.4,2850.1c0,0,51.8-10.9,59.1,33.9c0,0-18.5,8.8-36.4,0C575.4,2875.3,570.4,2850.1,570.4,2850.1z"/>
<path class="st3" d="M626.2,2821.5c0,0,33.3,35.9,1.3,63c0,0-15.8-10.5-17.4-28.9C608.7,2837.5,626.2,2821.5,626.2,2821.5z"/>
<path class="st4" d="M1671.3,1568.3l-240.5-8.5c-3-0.1-6.1-0.5-9.1-1.2c-48-10.8-39-48.5-32.4-65.1c-1,0.3-2,0.6-3,0.9
	c-8.4,2.8-18.8,3.9-28.3,4.1c-4.4,0.1-8.5-2-10.9-5.7l0,0l0,0c0,0-1,1.7-2.3,4.6c-8.4,17.9-7,38.8,3.6,55.4s29,26.7,48.7,26.7h273
	c-14.8,22.5-27.5,70.8-38.1,122c15.8-54.3,50.1-119,50.1-119l25.9-14.3L1671.3,1568.3L1671.3,1568.3z"/>
<path class="st23" d="M1388.7,1493.8c-0.8,0.2-1.6,0.4-2.4,0.7c-8.4,2.8-18.8,3.9-28.2,4.1c-4.4,0.1-8.5-2.1-10.9-5.7
	c-2.4-3.7-2.7-8.4-0.9-12.3c7.6-16.2,3.5-31.2,3.5-31.2c-4.5-34.9-19.9-81.8-27.6-121.4c-10.3-53.3,4.4-89.5,4.4-89.5
	c1.7-4.5,3.7-9.1,6.1-13.5l18.1-21.3l94.7,131.2l-82.3-20.9c0,0-15.1,50.1,19.9,75.4C1412.9,1410.8,1398.5,1457.5,1388.7,1493.8z"/>
<g>
	<path class="st25" d="M1612.7,1160.5c0.2-2-0.6-4-2.2-5.3c-1.9-1.6-4.2-2.5-4.2-2.5c-0.3-0.3-0.5-0.6-0.7-0.9
		c-8-9.6-12.7-18-15.2-25.1c-0.6-1.5-1-3-1.3-4.4c-0.1-0.2-0.1-0.4-0.2-0.7c-0.2-0.8-0.4-1.6-0.5-2.4c-0.1-0.4-0.1-0.7-0.2-1.1
		c-2-13,3.5-19.9,3.5-19.9l-42.5,8.8l21.6,29.6l6.7,9.1l0.3,0.5l14.6,20l0.8,1.1c2.1,2.9,6,3.7,9.1,2l7.1-4
		C1611.4,1164.3,1612.5,1162.6,1612.7,1160.5z"/>
	<path class="st8" d="M1554.2,1107l-15.2,8.5c-2.9,1.7-6.6,0.6-8.3-2.3l-8.1-14.5c-1.7-2.9-0.6-6.6,2.3-8.3l15.2-8.5L1554.2,1107z"
		/>
	<path class="st25" d="M1538.9,1110.4c2.4,4.3,7.7,6.1,12.4,4.2l74.7-29.5l-30-53.3l-64,48.6c-4,3-5.2,8.5-2.8,12.8L1538.9,1110.4z"
		/>
	<path class="st44" d="M1598.9,1036.6l-61.5,47.6c-1,0.8-1.4,2.1-0.9,3.3c0.3,0.8,1,1.4,1.8,1.6c0.8,0.3,1.7,0.1,2.4-0.3l65.3-41.2
		L1598.9,1036.6z"/>
	<path class="st8" d="M1675.1,932.3c-1,0.2-1.9,0.7-2.6,1.4l-93.1,100.5c-3,3.3-3.4,8.6-0.9,13l25.3,44.9c2.5,4.4,7.2,6.9,11.6,6
		l134-27.4c1.5-0.3,2.7-1.3,3.4-2.8L1675.1,932.3z"/>
	<path class="st25" d="M1554,1113.6l7-1.8c6.8-1.7,17.1-2.7,27.2,6.4c-1.7-11,2-17.6,3.1-19.4L1554,1113.6z"/>
	<g>
		
			<linearGradient id="SVGID_10_" gradientUnits="userSpaceOnUse" x1="7080.4233" y1="3544.9028" x2="7116.8916" y2="3238.2983" gradientTransform="matrix(0.9814 0.192 0.192 -0.9814 -6042.4229 3241.0337)">
			<stop  offset="0" style="stop-color:#F5D3AF"/>
			<stop  offset="0.1427" style="stop-color:#F5CFA8"/>
			<stop  offset="0.3568" style="stop-color:#F5C293"/>
			<stop  offset="0.6158" style="stop-color:#F5AE71"/>
			<stop  offset="0.9075" style="stop-color:#F69243"/>
			<stop  offset="1" style="stop-color:#F68833"/>
		</linearGradient>
		<path class="st45" d="M1584.9,1172.8c2.6-2,5.2-4.3,7.7-6.6c6.5-6.2,11.7-12.4,11.7-12.4c0.5-0.7,0.9-1.3,1.3-1.9
			c4.4-6.6,3.7-9.3,3.7-9.3c0.8-6.2-10.2-18.3-10.2-18.3c-5.9-7.7-11.2-9.2-11.2-9.2c0.1,1.2,0.2,2.2,0.3,3.1
			c0.1,0.4,0.1,0.7,0.2,1.1c0.1,0.8,0.3,1.6,0.5,2.4c0.1,0.2,0.1,0.4,0.2,0.7c0.3,1.3,0.6,2.7,1.2,4.3c-1.7,6.3-5.7,11.3-10.6,17.3
			c-0.1,0.2-2.2,2.2-2.2,1.8l-6.7-9.1l-2.1,30.6l-0.6,8.7c-4.7,41.4-10.7,76.7-18.2,118.7c9.5,2,23,3.8,39.8,2.9
			C1591.1,1261.8,1589.4,1222.2,1584.9,1172.8z"/>
		<path class="st23" d="M1589.8,1297.6c-16.9,0.8-30.3-0.9-39.8-2.9c-1.7,9.4-4.3,18.6-6.2,28.8l-28.1-20.3
			c-4.7-7.7-19.2-27.8-50.6-41.3c-39.5-17-26.9-24.2-38.9-35.5c-12-11.2-12-11.2-12-11.2s-33.8-25.3-59-13.9
			c0,0-25.6,11.1-25.9,40.9c-1.9,7.1-1.9,14.8,0.1,22c3.2,11.2,10.9,20.6,21.3,25.8l188.7,94.4c9.1,4.5,19.8,4.4,28.8-0.5
			c8.9-4.9,14.6-13.8,16.1-23.9C1587.2,1339.7,1589.1,1319.3,1589.8,1297.6z"/>
	</g>
	<path class="st8" d="M1548.1,1283.3c-1.2,0.4-2.1,1.5-2.2,2.8l-2,15.3c-0.1,0.5,0.2,0.9,0.6,1.1c14.9,6.4,29.4,8,47.8,6.1
		c1.8-0.2,3.2-1.8,3.3-3.7l0.6-20.6c0-1.8-1.2-3.4-2.9-3.7C1577.5,1278.2,1565.6,1277.1,1548.1,1283.3z"/>
</g>
<g class="st46">
	<path class="st8" d="M1351,2187.6c6.9,3.7,12.3,9,16,15.8c3.8,6.8,5.7,14.7,5.7,23.5c0,8.7-2,16.4-5.9,23s-9.5,11.8-16.6,15.4
		c-7.1,3.7-15.3,5.5-24.5,5.5h-29.4c-0.7,0-1,0.3-1,1v52.8c0,0.7-0.2,1.3-0.7,1.8c-0.5,0.5-1.1,0.7-1.8,0.7h-24.2
		c-0.7,0-1.3-0.2-1.8-0.7c-0.5-0.5-0.7-1.1-0.7-1.8v-140.2c0-0.7,0.2-1.3,0.7-1.8c0.5-0.5,1.1-0.7,1.8-0.7h58.4
		C1336.1,2182,1344.1,2183.9,1351,2187.6z M1338,2242c3.9-3.7,5.8-8.5,5.8-14.4c0-6.1-1.9-11-5.8-14.7c-3.9-3.7-9-5.6-15.3-5.6
		h-26.3c-0.7,0-1,0.3-1,1v38.1c0,0.7,0.3,1,1,1h26.3C1329,2247.5,1334.1,2245.6,1338,2242z"/>
	<path class="st8" d="M1468.5,2183c0.5-0.5,1.1-0.7,1.8-0.7h24.2c0.7,0,1.3,0.2,1.8,0.7c0.5,0.5,0.7,1.1,0.7,1.8v140
		c0,0.7-0.2,1.3-0.7,1.8c-0.5,0.5-1.1,0.7-1.8,0.7h-24.2c-0.7,0-1.3-0.2-1.8-0.7c-0.5-0.5-0.7-1.1-0.7-1.8v-57.2c0-0.7-0.3-1-1-1
		H1421c-0.7,0-1,0.3-1,1v57.2c0,0.7-0.2,1.3-0.7,1.8c-0.5,0.5-1.1,0.7-1.8,0.7h-24.2c-0.7,0-1.3-0.2-1.8-0.7
		c-0.5-0.5-0.7-1.1-0.7-1.8v-140c0-0.7,0.2-1.3,0.7-1.8c0.5-0.5,1.1-0.7,1.8-0.7h24.2c0.7,0,1.3,0.2,1.8,0.7
		c0.5,0.5,0.7,1.1,0.7,1.8v55.7c0,0.7,0.3,1,1,1h45.8c0.7,0,1-0.3,1-1v-55.7C1467.8,2184,1468,2183.4,1468.5,2183z"/>
	<path class="st8" d="M1610.9,2325.1l-6.2-20.3c-0.3-0.5-0.6-0.8-1-0.8h-50.9c-0.4,0-0.8,0.3-1,0.8l-6,20.3
		c-0.4,1.4-1.3,2.1-2.7,2.1h-26.3c-0.8,0-1.4-0.2-1.9-0.7c-0.4-0.5-0.5-1.2-0.2-2.2l44.7-140c0.4-1.4,1.3-2.1,2.7-2.1h32.5
		c1.4,0,2.3,0.7,2.7,2.1l44.7,140c0.1,0.3,0.2,0.6,0.2,1c0,1.2-0.8,1.9-2.3,1.9h-26.3C1612.2,2327.2,1611.3,2326.5,1610.9,2325.1z
		 M1545.6,2169.3c-0.3-0.6-0.2-1.3,0.3-2.2l15.1-21.7c0.7-1.1,1.7-1.7,2.9-1.7h27.5c1.2,0,2.2,0.6,2.9,1.7l15.7,21.7
		c0.4,0.6,0.6,1,0.6,1.5c0,1.1-0.8,1.7-2.3,1.7h-18.6c-1.2,0-2.2-0.5-2.9-1.7l-8.3-12.6c-0.4-0.8-0.8-0.8-1.2,0l-8.3,12.6
		c-0.7,1.1-1.7,1.7-2.9,1.7h-18.6C1546.6,2170.2,1545.9,2169.9,1545.6,2169.3z M1560,2281.4h36.4c0.8,0,1.1-0.4,0.8-1.2l-18.6-61.5
		c-0.1-0.6-0.3-0.8-0.6-0.7c-0.3,0.1-0.5,0.3-0.6,0.7l-18.2,61.5C1559,2281,1559.3,2281.4,1560,2281.4z M1627.3,2143.3
		c0,1.1-0.7,1.7-2.1,1.7h-17.4c-1.2,0-2.2-0.5-2.9-1.7l-14.7-20.9c-0.3-0.4-0.4-0.9-0.4-1.4c0-1.1,0.7-1.7,2.1-1.7h20.9
		c1.4,0,2.4,0.6,3.1,1.9l11,20.9C1627.1,2142.6,1627.3,2143,1627.3,2143.3z"/>
	<path class="st8" d="M1744.4,2183c0.5-0.5,1.1-0.7,1.8-0.7h24.2c0.7,0,1.3,0.2,1.8,0.7c0.5,0.5,0.7,1.1,0.7,1.8v140
		c0,0.7-0.2,1.3-0.7,1.8c-0.5,0.5-1.1,0.7-1.8,0.7H1747c-1.4,0-2.3-0.5-2.9-1.7l-53.6-88.6c-0.3-0.4-0.6-0.6-0.8-0.5
		c-0.3,0.1-0.4,0.4-0.4,0.9l0.4,87.4c0,0.7-0.2,1.3-0.7,1.8c-0.5,0.5-1.1,0.7-1.8,0.7h-24.2c-0.7,0-1.3-0.2-1.8-0.7
		c-0.5-0.5-0.7-1.1-0.7-1.8v-140c0-0.7,0.2-1.3,0.7-1.8c0.5-0.5,1.1-0.7,1.8-0.7h23.4c1.4,0,2.3,0.6,2.9,1.7l53.4,88.2
		c0.3,0.4,0.5,0.6,0.8,0.5c0.3-0.1,0.4-0.4,0.4-0.9l-0.2-87C1743.6,2184,1743.9,2183.4,1744.4,2183z"/>
</g>
<g class="st46">
	<path class="st8" d="M1246.8,2470.5c0.5,0.5,0.7,1.1,0.7,1.8v20.3c0,0.7-0.2,1.3-0.7,1.8c-0.5,0.5-1.1,0.7-1.8,0.7H1208
		c-0.7,0-1,0.3-1,1v116.2c0,0.7-0.2,1.3-0.7,1.8c-0.5,0.5-1.1,0.7-1.8,0.7h-24.2c-0.7,0-1.3-0.2-1.8-0.7c-0.5-0.5-0.7-1.1-0.7-1.8
		V2496c0-0.7-0.3-1-1-1h-36c-0.7,0-1.3-0.2-1.8-0.7c-0.5-0.5-0.7-1.1-0.7-1.8v-20.3c0-0.7,0.2-1.3,0.7-1.8c0.5-0.5,1.1-0.7,1.8-0.7
		h104.4C1245.7,2469.7,1246.3,2470,1246.8,2470.5z"/>
	<path class="st8" d="M1343.9,2470.5c0.5-0.5,1.1-0.7,1.8-0.7h24.2c0.7,0,1.3,0.2,1.8,0.7c0.5,0.5,0.7,1.1,0.7,1.8v140
		c0,0.7-0.2,1.3-0.7,1.8c-0.5,0.5-1.1,0.7-1.8,0.7h-24.2c-0.7,0-1.3-0.2-1.8-0.7c-0.5-0.5-0.7-1.1-0.7-1.8v-57.2c0-0.7-0.3-1-1-1
		h-45.8c-0.7,0-1,0.3-1,1v57.2c0,0.7-0.2,1.3-0.7,1.8c-0.5,0.5-1.1,0.7-1.8,0.7h-24.2c-0.7,0-1.3-0.2-1.8-0.7
		c-0.5-0.5-0.7-1.1-0.7-1.8v-140c0-0.7,0.2-1.3,0.7-1.8c0.5-0.5,1.1-0.7,1.8-0.7h24.2c0.7,0,1.3,0.2,1.8,0.7
		c0.5,0.5,0.7,1.1,0.7,1.8v55.7c0,0.7,0.3,1,1,1h45.8c0.7,0,1-0.3,1-1v-55.7C1343.2,2471.5,1343.5,2470.9,1343.9,2470.5z"/>
	<path class="st8" d="M1527.3,2454.2c-0.6,8.1-3,14.6-7.5,19.4c-4.4,4.8-9.9,7.9-16.6,9.4c-0.6,0.1-0.8,0.5-0.8,1v82.6
		c0,9.8-2.2,18.5-6.7,26c-4.5,7.5-10.8,13.4-18.8,17.5c-8.1,4.1-17.4,6.2-28.1,6.2c-10.6,0-20-2.1-28.1-6.2
		c-8.1-4.1-14.4-10-18.8-17.5c-4.5-7.5-6.7-16.2-6.7-26v-94.4c0-0.7,0.2-1.3,0.7-1.8c0.5-0.5,1.1-0.7,1.8-0.7h24.2
		c0.7,0,1.3,0.2,1.8,0.7c0.5,0.5,0.7,1.1,0.7,1.8v94.6c0,7.3,2.2,13.2,6.7,17.7c4.5,4.5,10.4,6.7,17.7,6.7c7.3,0,13.2-2.2,17.7-6.7
		c4.5-4.5,6.7-10.4,6.7-17.7v-94.6c0-0.7,0.2-1.3,0.7-1.8c0.5-0.5,1.1-0.7,1.8-0.7h16.6c4,0,7.7-1.1,11.2-3.3
		c3.4-2.2,5.5-6.3,6-12.2c0-1.7,0.8-2.5,2.5-2.5h12.8C1526.5,2451.7,1527.3,2452.5,1527.3,2454.2z"/>
	<path class="st8" d="M1616.6,2482.1c0,0.2,0.1,0.5,0.4,0.7c4.7,4.6,8.3,10,10.8,16.4c2.5,6.4,3.7,13.3,3.7,20.9v44.3
		c0,10.4-2.3,19.5-6.8,27.5c-4.6,8-10.9,14.2-19.2,18.5c-8.2,4.3-17.8,6.5-28.7,6.5c-10.8,0-20.3-2.2-28.5-6.6
		c-8.2-4.4-14.6-10.6-19.2-18.5c-4.6-7.9-6.8-17.1-6.8-27.4v-44.3c0-10.2,2.3-19.3,6.8-27.1c4.6-7.9,10.9-14,19.2-18.3
		c8.2-4.3,17.7-6.5,28.5-6.5c8.6,0,16.4,1.4,23.4,4.1c0.8,0.1,1.2,0.1,1.2,0c0-1.7,0.8-2.6,2.5-2.7c9-1,13.9-6.1,14.7-15.3
		c0-1.7,0.8-2.5,2.5-2.5h12.8c0.7,0,1.3,0.3,1.8,0.9c0.5,0.6,0.7,1.5,0.5,2.6c-0.6,6.6-2.6,12.2-6,16.6c-3.5,4.4-7.8,7.7-13,9.7
		C1616.8,2481.7,1616.6,2481.9,1616.6,2482.1z M1602.3,2519.9c0-8-2.3-14.5-6.9-19.4c-4.6-4.9-10.8-7.4-18.5-7.4
		c-7.6,0-13.7,2.5-18.3,7.4c-4.6,4.9-6.9,11.4-6.9,19.4v45.6c0,8,2.3,14.4,6.9,19.3c4.6,4.8,10.7,7.2,18.3,7.2
		c7.6,0,13.7-2.4,18.4-7.2c4.7-4.8,7-11.3,7-19.3V2519.9z M1572.3,2456.9c1-2.3,1.9-4.2,2.9-5.7c1-1.4,2.2-3,3.7-4.7
		c1.5-1.5,2.6-2.8,3.1-3.9c0.6-1.1,0.8-2.6,0.8-4.3c0-1.4-0.6-2.6-1.8-3.5c-1.2-1-2.5-1.5-4-1.5c-1.8,0-3.3,0.4-4.6,1.2
		c-1.2,0.8-2.8,2.5-4.8,5c-0.7,0.8-1.4,1.2-2.1,1.2c-0.7,0-1.2-0.2-1.7-0.6l-7-5.2c-0.7-0.4-1-1-1-1.9c0-0.7,0.1-1.2,0.4-1.7
		c3-4.4,6.2-7.6,9.4-9.4c3.2-1.9,7.3-2.8,12.1-2.8c6.2,0,11.2,1.7,14.9,5.1c3.7,3.4,5.6,8,5.6,14c0,3.2-0.7,5.8-2,8
		c-1.3,2.1-3.3,4.5-5.9,7.1c-2.9,3.2-4.7,5.4-5.4,6.6c-0.8,1.5-1.9,2.1-3.1,1.7l-8.1-1.7C1572,2459.6,1571.4,2458.6,1572.3,2456.9z"
		/>
	<path class="st8" d="M1737.8,2470.5c0.5-0.5,1.1-0.7,1.8-0.7h24.2c0.7,0,1.3,0.2,1.8,0.7c0.5,0.5,0.7,1.1,0.7,1.8v140
		c0,0.7-0.2,1.3-0.7,1.8c-0.5,0.5-1.1,0.7-1.8,0.7h-23.4c-1.4,0-2.3-0.5-2.9-1.7l-53.6-88.6c-0.3-0.4-0.6-0.6-0.8-0.5
		c-0.3,0.1-0.4,0.4-0.4,0.9l0.4,87.4c0,0.7-0.2,1.3-0.7,1.8c-0.5,0.5-1.1,0.7-1.8,0.7h-24.2c-0.7,0-1.3-0.2-1.8-0.7
		c-0.5-0.5-0.7-1.1-0.7-1.8v-140c0-0.7,0.2-1.3,0.7-1.8c0.5-0.5,1.1-0.7,1.8-0.7h23.4c1.4,0,2.3,0.6,2.9,1.7l53.4,88.2
		c0.3,0.4,0.5,0.6,0.8,0.5c0.3-0.1,0.4-0.4,0.4-0.9l-0.2-87C1737.1,2471.5,1737.3,2470.9,1737.8,2470.5z"/>
	<path class="st8" d="M1814.3,2609.9c-8.1-4.3-14.5-10.3-18.9-17.9c-4.5-7.7-6.7-16.5-6.7-26.6V2519c0-10.1,2.2-19,6.7-26.7
		c4.5-7.7,10.8-13.7,18.9-17.9c8.1-4.2,17.5-6.3,28.2-6.3c10.5,0,19.8,2.1,27.9,6.2c8.1,4.1,14.4,9.8,18.8,16.9
		c4.5,7.1,6.7,15,6.7,23.7v1.4c0,0.7-0.2,1.3-0.7,1.8c-0.5,0.5-1.1,0.7-1.8,0.7h-24.2c-0.7,0-1.3-0.2-1.8-0.7
		c-0.5-0.5-0.7-1.1-0.7-1.8v-0.6c0-6.3-2.2-11.7-6.6-16c-4.4-4.3-10.3-6.5-17.6-6.5c-7.5,0-13.4,2.3-17.9,6.9
		c-4.5,4.6-6.7,10.7-6.7,18.1v48c0,7.5,2.4,13.5,7.2,18.1c4.8,4.6,11,6.9,18.4,6.9c7.2,0,12.9-1.9,17.2-5.7
		c4.3-3.8,6.4-9.1,6.4-15.8v-9.3c0-0.7-0.3-1-1-1h-23.2c-0.7,0-1.3-0.2-1.8-0.7c-0.5-0.5-0.7-1.1-0.7-1.8v-19.1
		c0-0.7,0.2-1.3,0.7-1.8c0.5-0.5,1.1-0.7,1.8-0.7h50.5c0.7,0,1.3,0.2,1.8,0.7c0.5,0.5,0.7,1.1,0.7,1.8v27.3
		c0,10.5-2.2,19.6-6.6,27.3c-4.4,7.7-10.7,13.6-18.7,17.7c-8.1,4.1-17.4,6.1-28.1,6.1C1831.9,2616.4,1822.5,2614.2,1814.3,2609.9z"
		/>
</g>
</svg>
